<svg width="160" height="47" viewBox="0 0 160 47" fill="none" xmlns="http://www.w3.org/2000/svg">
<path d="M158.698 40.7856C158.698 43.2424 156.666 45.2325 154.153 45.2325H5.43702C2.92541 45.2325 0.886719 43.2424 0.886719 40.7856V5.32284C0.886719 2.86717 2.92541 0.870117 5.43702 0.870117H154.152C156.666 0.870117 158.697 2.86717 158.697 5.32284L158.698 40.7856Z" fill="black"/>
<path d="M153.674 0.923932C156.41 0.923932 158.637 3.09506 158.637 5.76321V40.3398C158.637 43.0079 156.41 45.1791 153.674 45.1791H5.91052C3.17395 45.1791 0.947161 43.0079 0.947161 40.3398V5.76321C0.947161 3.09506 3.17395 0.923932 5.91052 0.923932H153.674ZM153.674 0.000452236H5.91052C2.66121 0.000452236 0 2.59514 0 5.76321V40.3398C0 43.5079 2.66121 46.1025 5.91052 46.1025H153.674C156.923 46.1025 159.584 43.5079 159.584 40.3398V5.76321C159.584 2.59514 156.923 0.000452236 153.674 0.000452236Z" fill="#A6A6A6"/>
<path d="M35.6142 22.8017C35.5799 19.087 38.7338 17.2798 38.878 17.1957C37.0918 14.6566 34.3233 14.3097 33.3504 14.282C31.0252 14.0435 28.7698 15.6386 27.5853 15.6386C26.3772 15.6386 24.5532 14.3051 22.5874 14.3443C20.0577 14.3823 17.6911 15.8103 16.3932 18.0278C13.7145 22.5493 15.7123 29.1938 18.2786 32.8485C19.5624 34.6384 21.0625 36.6369 23.0259 36.5666C24.9469 36.4894 25.6644 35.3726 27.9825 35.3726C30.2793 35.3726 30.9531 36.5666 32.9556 36.5217C35.0172 36.4894 36.3152 34.7237 37.554 32.9177C39.0376 30.8661 39.6333 28.8457 39.657 28.742C39.6085 28.7258 35.6532 27.254 35.6142 22.8017Z" fill="white"/>
<path d="M31.8314 11.8778C32.8646 10.6181 33.5715 8.90424 33.3753 7.16504C31.8799 7.22958 30.0098 8.17352 28.9329 9.4056C27.9801 10.4913 27.129 12.2708 27.3489 13.9444C29.0287 14.0665 30.7534 13.118 31.8314 11.8778Z" fill="white"/>
<path d="M63.4138 36.3098H60.7292L59.2587 31.8045H54.1472L52.7464 36.3098H50.1328L55.1969 20.9717H58.3248L63.4138 36.3098ZM58.8154 29.9143L57.4855 25.9092C57.3448 25.5001 57.0812 24.5365 56.6923 23.0198H56.645C56.4902 23.6721 56.2407 24.6356 55.8979 25.9092L54.5917 29.9143H58.8154Z" fill="white"/>
<path d="M76.4365 30.6444C76.4365 32.5254 75.9152 34.0122 74.8726 35.1037C73.9387 36.0753 72.7791 36.5605 71.3948 36.5605C69.9007 36.5605 68.8273 36.0372 68.1736 34.9907H68.1263V40.8169H65.6061V28.8914C65.6061 27.7089 65.5742 26.4952 65.5127 25.2505H67.7291L67.8698 27.0035H67.9171C68.7576 25.6827 70.0331 25.0234 71.7448 25.0234C73.0829 25.0234 74.2 25.5386 75.0937 26.5702C75.9897 27.6028 76.4365 28.9606 76.4365 30.6444ZM73.869 30.7343C73.869 29.6579 73.6208 28.7704 73.1219 28.0719C72.577 27.3435 71.8452 26.9793 70.9279 26.9793C70.3061 26.9793 69.7411 27.1822 69.2363 27.5821C68.7304 27.9855 68.3994 28.5122 68.2445 29.1646C68.1665 29.4688 68.1275 29.7178 68.1275 29.9137V31.7578C68.1275 32.5623 68.3805 33.2411 68.8864 33.7955C69.3924 34.3499 70.0496 34.6265 70.8582 34.6265C71.8074 34.6265 72.5462 34.2692 73.0746 33.5569C73.6042 32.8435 73.869 31.903 73.869 30.7343Z" fill="white"/>
<path d="M89.4842 30.6444C89.4842 32.5254 88.9629 34.0122 87.9191 35.1037C86.9864 36.0753 85.8267 36.5605 84.4425 36.5605C82.9483 36.5605 81.875 36.0372 81.2224 34.9907H81.1752V40.8169H78.6549V28.8914C78.6549 27.7089 78.623 26.4952 78.5615 25.2505H80.778L80.9186 27.0035H80.9659C81.8052 25.6827 83.0807 25.0234 84.7936 25.0234C86.1305 25.0234 87.2476 25.5386 88.1437 26.5702C89.0362 27.6028 89.4842 28.9606 89.4842 30.6444ZM86.9166 30.7343C86.9166 29.6579 86.6672 28.7704 86.1684 28.0719C85.6234 27.3435 84.8941 26.9793 83.9756 26.9793C83.3526 26.9793 82.7887 27.1822 82.2828 27.5821C81.7769 27.9855 81.447 28.5122 81.2922 29.1646C81.2153 29.4688 81.1752 29.7178 81.1752 29.9137V31.7578C81.1752 32.5623 81.4281 33.2411 81.9317 33.7955C82.4376 34.3487 83.0949 34.6265 83.9058 34.6265C84.8551 34.6265 85.5939 34.2692 86.1223 33.5569C86.6519 32.8435 86.9166 31.903 86.9166 30.7343Z" fill="white"/>
<path d="M104.071 32.0087C104.071 33.3133 103.606 34.3749 102.674 35.1943C101.649 36.0898 100.222 36.537 98.3886 36.537C96.6958 36.537 95.3388 36.2189 94.3115 35.5816L94.8955 33.5335C96.0019 34.1858 97.216 34.5132 98.5387 34.5132C99.488 34.5132 100.227 34.3034 100.758 33.8862C101.286 33.4689 101.55 32.9088 101.55 32.2104C101.55 31.588 101.332 31.0636 100.896 30.6383C100.462 30.213 99.7374 29.8177 98.7255 29.4523C95.9712 28.4507 94.5952 26.9835 94.5952 25.0542C94.5952 23.7933 95.0775 22.7594 96.0433 21.9549C97.0055 21.1493 98.2893 20.7471 99.8946 20.7471C101.326 20.7471 102.515 20.9903 103.465 21.4755L102.834 23.4786C101.948 23.0084 100.945 22.7733 99.8237 22.7733C98.9371 22.7733 98.2444 22.9865 97.7479 23.4106C97.3283 23.7898 97.1178 24.252 97.1178 24.7994C97.1178 25.4057 97.3578 25.907 97.8401 26.3012C98.2598 26.6654 99.0222 27.0596 100.129 27.4849C101.482 28.0162 102.476 28.6374 103.116 29.3497C103.753 30.0597 104.071 30.9483 104.071 32.0087Z" fill="white"/>
<path d="M112.403 27.094H109.625V32.4637C109.625 33.8295 110.115 34.5118 111.096 34.5118C111.546 34.5118 111.92 34.4738 112.215 34.3977L112.285 36.2637C111.789 36.4446 111.135 36.5357 110.325 36.5357C109.33 36.5357 108.552 36.2395 107.991 35.6482C107.431 35.0558 107.15 34.0623 107.15 32.6666V27.0917H105.495V25.2476H107.15V23.2226L109.625 22.4941V25.2476H112.403V27.094Z" fill="white"/>
<path d="M124.938 30.6892C124.938 32.3892 124.439 33.785 123.444 34.8764C122.4 36.0002 121.014 36.5603 119.287 36.5603C117.623 36.5603 116.298 36.0221 115.31 34.9456C114.321 33.8691 113.827 32.5102 113.827 30.8725C113.827 29.1586 114.335 27.7548 115.356 26.6633C116.373 25.5707 117.747 25.0244 119.474 25.0244C121.138 25.0244 122.478 25.5627 123.488 26.6403C124.455 27.6857 124.938 29.0353 124.938 30.6892ZM122.323 30.7687C122.323 29.7487 122.1 28.8739 121.647 28.1444C121.118 27.2615 120.363 26.8212 119.384 26.8212C118.371 26.8212 117.602 27.2627 117.073 28.1444C116.62 28.8751 116.397 29.7637 116.397 30.8148C116.397 31.8348 116.62 32.7096 117.073 33.438C117.618 34.3209 118.379 34.7612 119.362 34.7612C120.324 34.7612 121.079 34.3117 121.624 33.415C122.089 32.6716 122.323 31.7876 122.323 30.7687Z" fill="white"/>
<path d="M133.13 27.4115C132.88 27.3666 132.614 27.3435 132.335 27.3435C131.449 27.3435 130.763 27.6697 130.281 28.3232C129.861 28.8995 129.651 29.6279 129.651 30.5073V36.3104H127.131L127.155 28.7335C127.155 27.4588 127.123 26.2982 127.061 25.2516H129.256L129.348 27.3677H129.418C129.684 26.6405 130.103 26.055 130.678 25.6158C131.239 25.2205 131.846 25.0234 132.499 25.0234C132.732 25.0234 132.943 25.0396 133.13 25.0684V27.4115Z" fill="white"/>
<path d="M144.401 30.2564C144.401 30.6967 144.372 31.0678 144.309 31.371H136.748C136.778 32.4636 137.143 33.2992 137.845 33.8755C138.483 34.3906 139.306 34.6488 140.318 34.6488C141.438 34.6488 142.459 34.4748 143.378 34.1256L143.772 35.8313C142.699 36.2877 141.432 36.5148 139.97 36.5148C138.211 36.5148 136.83 36.01 135.825 35.0015C134.823 33.993 134.32 32.6388 134.32 30.9399C134.32 29.2722 134.787 27.8833 135.722 26.7757C136.701 25.5932 138.024 25.002 139.688 25.002C141.323 25.002 142.561 25.5932 143.401 26.7757C144.067 27.7151 144.401 28.8768 144.401 30.2564ZM141.998 29.6191C142.015 28.8907 141.85 28.2614 141.509 27.73C141.072 27.0466 140.402 26.7054 139.5 26.7054C138.676 26.7054 138.006 27.0385 137.494 27.707C137.075 28.2383 136.825 28.8757 136.748 29.6179H141.998V29.6191Z" fill="white"/>
<path d="M57.9825 11.5361C57.9825 12.8927 57.5652 13.9139 56.7319 14.5996C55.9599 15.2324 54.8629 15.5493 53.4421 15.5493C52.7375 15.5493 52.1346 15.5194 51.6299 15.4594V8.04737C52.2883 7.94364 52.9976 7.89062 53.7636 7.89062C55.1171 7.89062 56.1373 8.17761 56.8252 8.75158C57.596 9.40047 57.9825 10.3283 57.9825 11.5361ZM56.6763 11.5696C56.6763 10.6902 56.4375 10.0159 55.9599 9.54569C55.4824 9.0766 54.7849 8.84148 53.8664 8.84148C53.4763 8.84148 53.1442 8.86684 52.8687 8.91985V14.5547C53.0212 14.5777 53.3002 14.5881 53.7057 14.5881C54.6537 14.5881 55.3854 14.3311 55.9008 13.817C56.4162 13.303 56.6763 12.5539 56.6763 11.5696Z" fill="white"/>
<path d="M64.908 12.7198C64.908 13.5554 64.6633 14.24 64.1739 14.7771C63.6609 15.3291 62.9811 15.6046 62.1324 15.6046C61.3144 15.6046 60.663 15.3407 60.1772 14.8105C59.6925 14.2815 59.4502 13.6141 59.4502 12.8097C59.4502 11.9683 59.6996 11.2779 60.2008 10.742C60.702 10.206 61.3758 9.9375 62.2246 9.9375C63.0426 9.9375 63.6999 10.2014 64.1975 10.7305C64.6704 11.2445 64.908 11.9084 64.908 12.7198ZM63.623 12.7589C63.623 12.2576 63.5119 11.8277 63.2909 11.4692C63.0308 11.0359 62.6608 10.8192 62.1797 10.8192C61.682 10.8192 61.3037 11.0359 61.0437 11.4692C60.8214 11.8277 60.7115 12.2645 60.7115 12.7808C60.7115 13.2822 60.8226 13.7121 61.0437 14.0706C61.312 14.5039 61.6856 14.7206 62.1679 14.7206C62.6407 14.7206 63.0119 14.5005 63.279 14.059C63.5084 13.6937 63.623 13.2603 63.623 12.7589Z" fill="white"/>
<path d="M74.1949 10.0488L72.4513 15.482H71.3164L70.5942 13.1227C70.411 12.5337 70.262 11.9482 70.1462 11.3673H70.1237C70.0161 11.9644 69.8672 12.5487 69.6757 13.1227L68.9085 15.482H67.7607L66.1211 10.0488H67.3942L68.0243 12.6317C68.1768 13.2426 68.3021 13.8246 68.4026 14.3755H68.425C68.5172 13.9214 68.6697 13.3428 68.8849 12.6432L69.6757 10.05H70.6852L71.4429 12.5879C71.6262 13.2068 71.7751 13.8027 71.8898 14.3767H71.924C72.008 13.8177 72.1345 13.2218 72.3023 12.5879L72.9785 10.05H74.1949V10.0488Z" fill="white"/>
<path d="M80.6178 15.4818H79.379V12.3699C79.379 11.411 79.0055 10.9315 78.256 10.9315C77.8884 10.9315 77.5917 11.0629 77.3612 11.3269C77.133 11.5908 77.0172 11.902 77.0172 12.2581V15.4807H75.7783V11.6012C75.7783 11.124 75.763 10.6065 75.7334 10.0464H76.8221L76.88 10.8958H76.9143C77.0585 10.6319 77.2737 10.414 77.5562 10.24C77.8919 10.0371 78.2678 9.93457 78.6792 9.93457C79.1993 9.93457 79.632 10.0982 79.976 10.4267C80.4039 10.829 80.6178 11.4294 80.6178 12.227V15.4818Z" fill="white"/>
<path d="M84.0336 15.4818H82.7959V7.55566H84.0336V15.4818Z" fill="white"/>
<path d="M91.3269 12.7198C91.3269 13.5554 91.0822 14.24 90.5928 14.7771C90.0798 15.3291 89.3989 15.6046 88.5513 15.6046C87.7321 15.6046 87.0808 15.3407 86.5961 14.8105C86.1115 14.2815 85.8691 13.6141 85.8691 12.8097C85.8691 11.9683 86.1186 11.2779 86.6198 10.742C87.121 10.206 87.7948 9.9375 88.6424 9.9375C89.4616 9.9375 90.1176 10.2014 90.6165 10.7305C91.0893 11.2445 91.3269 11.9084 91.3269 12.7198ZM90.0408 12.7589C90.0408 12.2576 89.9297 11.8277 89.7086 11.4692C89.4497 11.0359 89.0786 10.8192 88.5986 10.8192C88.0998 10.8192 87.7215 11.0359 87.4626 11.4692C87.2404 11.8277 87.1304 12.2645 87.1304 12.7808C87.1304 13.2822 87.2416 13.7121 87.4626 14.0706C87.731 14.5039 88.1045 14.7206 88.5868 14.7206C89.0596 14.7206 89.4296 14.5005 89.6968 14.059C89.9273 13.6937 90.0408 13.2603 90.0408 12.7589Z" fill="white"/>
<path d="M97.3228 15.4813H96.2104L96.1182 14.8554H96.0839C95.7033 15.3545 95.1607 15.6046 94.4562 15.6046C93.9301 15.6046 93.5046 15.4398 93.1842 15.1125C92.8934 14.8151 92.748 14.4451 92.748 14.006C92.748 13.3421 93.0318 12.8362 93.6027 12.4858C94.1725 12.1354 94.974 11.9637 96.0059 11.9718V11.8703C96.0059 11.1546 95.6206 10.7973 94.8486 10.7973C94.299 10.7973 93.8143 10.9322 93.3958 11.1995L93.1441 10.4066C93.6618 10.0942 94.3013 9.9375 95.0555 9.9375C96.5119 9.9375 97.2424 10.6867 97.2424 12.185V14.1858C97.2424 14.7287 97.2696 15.1609 97.3228 15.4813ZM96.0367 13.6141V12.7762C94.6701 12.7532 93.9869 13.1185 93.9869 13.8712C93.9869 14.1547 94.0649 14.3668 94.2245 14.5085C94.3841 14.6503 94.5874 14.7206 94.8297 14.7206C95.1016 14.7206 95.3558 14.6365 95.5875 14.4693C95.8203 14.3011 95.9634 14.0878 96.0166 13.8262C96.0296 13.7674 96.0367 13.696 96.0367 13.6141Z" fill="white"/>
<path d="M104.362 15.4818H103.263L103.205 14.6093H103.171C102.82 15.2732 102.222 15.6051 101.381 15.6051C100.71 15.6051 100.151 15.3481 99.7073 14.834C99.264 14.32 99.043 13.6527 99.043 12.8332C99.043 11.9538 99.2829 11.2415 99.7652 10.6975C100.232 10.1904 100.804 9.93684 101.485 9.93684C102.233 9.93684 102.757 10.1823 103.055 10.6745H103.079V7.55566H104.319V14.018C104.319 14.547 104.333 15.0346 104.362 15.4818ZM103.079 13.1905V12.2846C103.079 12.1278 103.067 12.0011 103.044 11.9042C102.975 11.6138 102.825 11.3695 102.596 11.1724C102.366 10.9753 102.088 10.8762 101.768 10.8762C101.306 10.8762 100.944 11.0548 100.678 11.4133C100.414 11.7717 100.281 12.2293 100.281 12.7883C100.281 13.3253 100.407 13.761 100.661 14.0964C100.93 14.4537 101.291 14.6323 101.744 14.6323C102.151 14.6323 102.476 14.4837 102.723 14.1851C102.962 13.9097 103.079 13.5777 103.079 13.1905Z" fill="white"/>
<path d="M114.958 12.7198C114.958 13.5554 114.713 14.24 114.224 14.7771C113.711 15.3291 113.032 15.6046 112.182 15.6046C111.365 15.6046 110.714 15.3407 110.227 14.8105C109.742 14.2815 109.5 13.6141 109.5 12.8097C109.5 11.9683 109.749 11.2779 110.251 10.742C110.752 10.206 111.426 9.9375 112.276 9.9375C113.092 9.9375 113.751 10.2014 114.247 10.7305C114.72 11.2445 114.958 11.9084 114.958 12.7198ZM113.674 12.7589C113.674 12.2576 113.563 11.8277 113.342 11.4692C113.081 11.0359 112.712 10.8192 112.229 10.8192C111.733 10.8192 111.355 11.0359 111.093 11.4692C110.871 11.8277 110.761 12.2645 110.761 12.7808C110.761 13.2822 110.872 13.7121 111.093 14.0706C111.362 14.5039 111.735 14.7206 112.218 14.7206C112.691 14.7206 113.063 14.5005 113.33 14.059C113.558 13.6937 113.674 13.2603 113.674 12.7589Z" fill="white"/>
<path d="M121.619 15.4818H120.381V12.3699C120.381 11.411 120.007 10.9315 119.257 10.9315C118.889 10.9315 118.592 11.0629 118.363 11.3269C118.134 11.5908 118.019 11.902 118.019 12.2581V15.4807H116.779V11.6012C116.779 11.124 116.765 10.6065 116.735 10.0464H117.823L117.881 10.8958H117.915C118.06 10.6319 118.276 10.414 118.557 10.24C118.894 10.0371 119.269 9.93457 119.681 9.93457C120.2 9.93457 120.633 10.0982 120.977 10.4267C121.406 10.829 121.619 11.4294 121.619 12.227V15.4818Z" fill="white"/>
<path d="M129.956 10.9532H128.592V13.5925C128.592 14.2633 128.834 14.5987 129.314 14.5987C129.537 14.5987 129.721 14.5802 129.866 14.5422L129.898 15.4585C129.654 15.5484 129.332 15.5933 128.936 15.5933C128.447 15.5933 128.066 15.4481 127.791 15.1577C127.514 14.8672 127.377 14.3785 127.377 13.6928V10.9532H126.562V10.0484H127.377V9.0526L128.591 8.69531V10.0473H129.955V10.9532H129.956Z" fill="white"/>
<path d="M136.514 15.4818H135.274V12.3929C135.274 11.419 134.901 10.9315 134.153 10.9315C133.578 10.9315 133.186 11.2139 132.97 11.7786C132.934 11.8973 132.912 12.0426 132.912 12.2131V15.4806H131.675V7.55566H132.912V10.8301H132.936C133.326 10.2342 133.885 9.93684 134.61 9.93684C135.123 9.93684 135.547 10.1005 135.884 10.429C136.304 10.8381 136.514 11.4467 136.514 12.2512V15.4818Z" fill="white"/>
<path d="M143.279 12.5083C143.279 12.725 143.263 12.9071 143.233 13.0558H139.518C139.534 13.5928 139.712 14.002 140.056 14.2855C140.37 14.5391 140.776 14.6659 141.272 14.6659C141.822 14.6659 142.323 14.5806 142.775 14.4089L142.969 15.2479C142.44 15.4715 141.818 15.5833 141.098 15.5833C140.235 15.5833 139.556 15.3355 139.064 14.8399C138.57 14.3443 138.325 13.6793 138.325 12.8448C138.325 12.0254 138.553 11.3431 139.013 10.7991C139.493 10.2182 140.142 9.92773 140.961 9.92773C141.763 9.92773 142.372 10.2182 142.783 10.7991C143.115 11.2601 143.279 11.8306 143.279 12.5083ZM142.097 12.196C142.107 11.8375 142.025 11.5286 141.857 11.2682C141.642 10.9328 141.315 10.7645 140.871 10.7645C140.467 10.7645 140.137 10.9281 139.886 11.2566C139.68 11.5183 139.558 11.8306 139.518 12.196H142.097Z" fill="white"/>
</svg>
