<svg width="160" height="47" viewBox="0 0 160 47" fill="none" xmlns="http://www.w3.org/2000/svg">
<path d="M154.097 46.1016H6.53717C3.29232 46.1016 0.634766 43.5069 0.634766 40.3388V5.76224C0.634766 2.59416 3.29232 -0.000524327 6.53717 -0.000524327H154.097C157.342 -0.000524327 160 2.59416 160 5.76224V40.3388C160 43.5069 157.342 46.1016 154.097 46.1016Z" fill="black"/>
<path d="M154.097 0.922956C156.83 0.922956 159.054 3.09408 159.054 5.76224V40.3388C159.054 43.007 156.83 45.1781 154.097 45.1781H6.53717C3.80435 45.1781 1.58062 43.007 1.58062 40.3388V5.76224C1.58062 3.09408 3.80435 0.922956 6.53717 0.922956H154.097ZM154.097 -0.000524327H6.53717C3.29232 -0.000524327 0.634766 2.59416 0.634766 5.76224V40.3388C0.634766 43.5069 3.29232 46.1016 6.53717 46.1016H154.097C157.342 46.1016 160 43.5069 160 40.3388V5.76224C160 2.59416 157.342 -0.000524327 154.097 -0.000524327Z" fill="#A6A6A6"/>
<path d="M56.6098 11.8053C56.6098 12.7677 56.3147 13.5385 55.7333 14.1133C55.0649 14.7948 54.1943 15.1376 53.1274 15.1376C52.1078 15.1376 51.2371 14.789 50.523 14.1018C49.8073 13.4045 49.4502 12.5487 49.4502 11.5244C49.4502 10.5001 49.8073 9.64428 50.523 8.95275C51.2371 8.25978 52.1078 7.91113 53.1274 7.91113C53.635 7.91113 54.119 8.01342 54.5809 8.20359C55.0412 8.3952 55.416 8.65453 55.6876 8.97436L55.0708 9.58233C54.5971 9.03631 53.9523 8.7669 53.1274 8.7669C52.3837 8.7669 51.7389 9.02046 51.1914 9.53191C50.6499 10.0448 50.3783 10.709 50.3783 11.5244C50.3783 12.3398 50.6499 13.0097 51.1914 13.5226C51.7389 14.0283 52.3837 14.2876 53.1274 14.2876C53.9168 14.2876 54.5809 14.0283 55.1047 13.5169C55.45 13.1783 55.6462 12.7115 55.6979 12.1151H53.1274V11.2823H56.5567C56.598 11.4624 56.6098 11.6368 56.6098 11.8053Z" fill="white" stroke="white" stroke-width="0.16" stroke-miterlimit="10"/>
<path d="M62.0511 8.91888H58.8299V11.1087H61.7339V11.9414H58.8299V14.1313H62.0511V14.9799H57.918V8.07031H62.0511V8.91888Z" fill="white" stroke="white" stroke-width="0.16" stroke-miterlimit="10"/>
<path d="M65.8897 14.9799H64.9778V8.91888H63.002V8.07031H67.867V8.91888H65.8897V14.9799Z" fill="white" stroke="white" stroke-width="0.16" stroke-miterlimit="10"/>
<path d="M71.3877 14.9799V8.07031H72.2981V14.9799H71.3877Z" fill="white" stroke="white" stroke-width="0.16" stroke-miterlimit="10"/>
<path d="M76.334 14.9799H75.4295V8.91888H73.4463V8.07031H78.3172V8.91888H76.334V14.9799Z" fill="white" stroke="white" stroke-width="0.16" stroke-miterlimit="10"/>
<path d="M87.5284 14.0903C86.8304 14.789 85.9657 15.1376 84.9343 15.1376C83.8969 15.1376 83.0322 14.789 82.3343 14.0903C81.6378 13.393 81.291 12.5372 81.291 11.5244C81.291 10.5116 81.6378 9.65581 82.3343 8.95851C83.0322 8.25978 83.8969 7.91113 84.9343 7.91113C85.9598 7.91113 86.8245 8.25978 87.5225 8.96428C88.2249 9.66733 88.5716 10.5173 88.5716 11.5244C88.5716 12.5372 88.2249 13.393 87.5284 14.0903ZM83.0086 13.5111C83.5339 14.0283 84.1729 14.2876 84.9343 14.2876C85.6898 14.2876 86.3346 14.0283 86.854 13.5111C87.3779 12.9939 87.6435 12.3297 87.6435 11.5244C87.6435 10.719 87.3779 10.0549 86.854 9.53767C86.3346 9.02046 85.6898 8.76114 84.9343 8.76114C84.1729 8.76114 83.5339 9.02046 83.0086 9.53767C82.4848 10.0549 82.2192 10.719 82.2192 11.5244C82.2192 12.3297 82.4848 12.9939 83.0086 13.5111Z" fill="white" stroke="white" stroke-width="0.16" stroke-miterlimit="10"/>
<path d="M89.8506 14.9799V8.07031H90.9573L94.3984 13.4441H94.4382L94.3984 12.1158V8.07031H95.3088V14.9799H94.3585L90.7551 9.341H90.7153L90.7551 10.6751V14.9799H89.8506Z" fill="white" stroke="white" stroke-width="0.16" stroke-miterlimit="10"/>
<path d="M81.0671 25.0702C78.2945 25.0702 76.0294 27.1304 76.0294 29.9729C76.0294 32.7923 78.2945 34.8741 81.0671 34.8741C83.8457 34.8741 86.1107 32.7923 86.1107 29.9729C86.1107 27.1304 83.8457 25.0702 81.0671 25.0702ZM81.0671 32.9436C79.5458 32.9436 78.2369 31.7175 78.2369 29.9729C78.2369 28.2051 79.5458 27.0007 81.0671 27.0007C82.5885 27.0007 83.9032 28.2051 83.9032 29.9729C83.9032 31.7175 82.5885 32.9436 81.0671 32.9436ZM70.0754 25.0702C67.2968 25.0702 65.0377 27.1304 65.0377 29.9729C65.0377 32.7923 67.2968 34.8741 70.0754 34.8741C72.8525 34.8741 75.1131 32.7923 75.1131 29.9729C75.1131 27.1304 72.8525 25.0702 70.0754 25.0702ZM70.0754 32.9436C68.5526 32.9436 67.2393 31.7175 67.2393 29.9729C67.2393 28.2051 68.5526 27.0007 70.0754 27.0007C71.5967 27.0007 72.9056 28.2051 72.9056 29.9729C72.9056 31.7175 71.5967 32.9436 70.0754 32.9436ZM56.9957 26.5728V28.6561H62.0909C61.9419 29.8201 61.5435 30.6759 60.9326 31.2724C60.1889 31.9927 59.0305 32.7923 56.9957 32.7923C53.86 32.7923 51.4046 30.3215 51.4046 27.26C51.4046 24.1986 53.86 21.7278 56.9957 21.7278C58.6911 21.7278 59.9247 22.3747 60.8352 23.2131L62.3388 21.7451C61.0654 20.5579 59.3714 19.646 56.9957 19.646C52.6958 19.646 49.082 23.0619 49.082 27.26C49.082 31.4582 52.6958 34.8741 56.9957 34.8741C59.3197 34.8741 61.0654 34.1307 62.4377 32.7361C63.8439 31.3631 64.2822 29.4326 64.2822 27.8738C64.2822 27.3897 64.2409 26.9445 64.1671 26.5728H56.9957ZM110.48 28.1878C110.066 27.0915 108.786 25.0702 106.18 25.0702C103.598 25.0702 101.448 27.0569 101.448 29.9729C101.448 32.7188 103.576 34.8741 106.428 34.8741C108.735 34.8741 110.066 33.5011 110.613 32.7015L108.901 31.5879C108.33 32.4033 107.553 32.9436 106.428 32.9436C105.311 32.9436 104.51 32.4436 103.996 31.4582L110.712 28.7454L110.48 28.1878ZM103.633 29.8201C103.576 27.93 105.137 26.9618 106.256 26.9618C107.132 26.9618 107.876 27.3897 108.124 28.002L103.633 29.8201ZM98.1752 34.5759H100.383V20.169H98.1752V34.5759ZM94.56 26.1622H94.4862C93.9904 25.5888 93.0446 25.0702 91.8464 25.0702C89.332 25.0702 87.033 27.2255 87.033 29.9887C87.033 32.7361 89.332 34.8741 91.8464 34.8741C93.0446 34.8741 93.9904 34.3511 94.4862 33.7604H94.56V34.4635C94.56 36.3378 93.5345 37.3449 91.8803 37.3449C90.5316 37.3449 89.695 36.394 89.3497 35.5944L87.4299 36.3767C87.9833 37.6762 89.4485 39.2754 91.8803 39.2754C94.4685 39.2754 96.6524 37.7886 96.6524 34.171V25.3684H94.56V26.1622ZM92.0353 32.9436C90.5139 32.9436 89.2405 31.7002 89.2405 29.9887C89.2405 28.2613 90.5139 27.0007 92.0353 27.0007C93.5345 27.0007 94.7164 28.2613 94.7164 29.9887C94.7164 31.7002 93.5345 32.9436 92.0353 32.9436ZM120.815 20.169H115.536V34.5759H117.737V29.1171H120.815C123.26 29.1171 125.658 27.3897 125.658 24.6423C125.658 21.8963 123.255 20.169 120.815 20.169ZM120.873 27.1131H117.737V22.173H120.873C122.517 22.173 123.455 23.5056 123.455 24.6423C123.455 25.7574 122.517 27.1131 120.873 27.1131ZM134.482 25.0428C132.892 25.0428 131.238 25.7286 130.557 27.2485L132.511 28.0481C132.931 27.2485 133.705 26.9892 134.522 26.9892C135.664 26.9892 136.823 27.6591 136.84 28.8419V28.9932C136.442 28.7684 135.589 28.4356 134.54 28.4356C132.436 28.4356 130.292 29.5666 130.292 31.6772C130.292 33.6077 132.015 34.851 133.953 34.851C135.434 34.851 136.252 34.1984 136.765 33.4392H136.84V34.5528H138.967V29.0263C138.967 26.472 137.013 25.0428 134.482 25.0428ZM134.217 32.9378C133.497 32.9378 132.493 32.5891 132.493 31.7175C132.493 30.6024 133.745 30.1746 134.828 30.1746C135.797 30.1746 136.252 30.3835 136.84 30.6586C136.668 31.9927 135.492 32.9378 134.217 32.9378ZM146.714 25.3583L144.183 31.6037H144.108L141.491 25.3583H139.117L143.048 34.086L140.805 38.9426H143.106L149.163 25.3583H146.714ZM126.868 34.5759H129.076V20.169H126.868V34.5759Z" fill="white"/>
<path d="M12.9527 8.68805C12.606 9.04246 12.4053 9.59424 12.4053 10.3088V35.7975C12.4053 36.5121 12.606 37.0639 12.9527 37.4183L13.0383 37.4961L27.6674 23.2189V22.8817L13.0383 8.60449L12.9527 8.68805Z" fill="url(#paint0_linear_25_1497)"/>
<path d="M32.5389 27.9795L27.668 23.218V22.8809L32.5448 18.1194L32.654 18.1814L38.4295 21.3898C40.0778 22.3003 40.0778 23.7986 38.4295 24.7149L32.654 27.9175L32.5389 27.9795Z" fill="url(#paint1_linear_25_1497)"/>
<path d="M32.6539 27.9183L27.6678 23.0502L12.9531 37.4182C13.5006 37.9801 14.3933 38.0478 15.4085 37.4859L32.6539 27.9183Z" fill="url(#paint2_linear_25_1497)"/>
<path d="M32.6539 18.1827L15.4085 8.61507C14.3933 8.05896 13.5006 8.12667 12.9531 8.68854L27.6678 23.0508L32.6539 18.1827Z" fill="url(#paint3_linear_25_1497)"/>
<defs>
<linearGradient id="paint0_linear_25_1497" x1="26.3685" y1="36.063" x2="7.03146" y2="16.2574" gradientUnits="userSpaceOnUse">
<stop stop-color="#00A0FF"/>
<stop offset="0.0066" stop-color="#00A1FF"/>
<stop offset="0.2601" stop-color="#00BEFF"/>
<stop offset="0.5122" stop-color="#00D2FF"/>
<stop offset="0.7604" stop-color="#00DFFF"/>
<stop offset="1" stop-color="#00E3FF"/>
</linearGradient>
<linearGradient id="paint1_linear_25_1497" x1="40.5758" y1="23.0478" x2="12.0119" y2="23.0478" gradientUnits="userSpaceOnUse">
<stop stop-color="#FFE000"/>
<stop offset="0.4087" stop-color="#FFBD00"/>
<stop offset="0.7754" stop-color="#FFA500"/>
<stop offset="1" stop-color="#FF9C00"/>
</linearGradient>
<linearGradient id="paint2_linear_25_1497" x1="29.9426" y1="20.4038" x2="3.71998" y2="-6.45418" gradientUnits="userSpaceOnUse">
<stop stop-color="#FF3A44"/>
<stop offset="1" stop-color="#C31162"/>
</linearGradient>
<linearGradient id="paint3_linear_25_1497" x1="9.24913" y1="45.8988" x2="20.9587" y2="33.9056" gradientUnits="userSpaceOnUse">
<stop stop-color="#32A071"/>
<stop offset="0.0685" stop-color="#2DA771"/>
<stop offset="0.4762" stop-color="#15CF74"/>
<stop offset="0.8009" stop-color="#06E775"/>
<stop offset="1" stop-color="#00F076"/>
</linearGradient>
</defs>
</svg>
