<svg width="237" height="72" viewBox="0 0 237 72" fill="none" xmlns="http://www.w3.org/2000/svg">
<g opacity="0.3">
<path d="M118.941 4.93566C116.025 4.01291 116.003 3.87784 118.477 2.00819C120.245 0.671708 125.354 0.0319022 134.519 0.00204464C145.619 -0.0349219 148.479 0.414364 150.91 2.57975C152.956 4.40533 158.186 5.74608 168.104 6.98872C196.54 10.5503 231.007 20.0749 230.644 24.2706C230.099 30.5478 229.157 33.5577 227.253 35.1004C226.077 36.053 225.756 36.8321 226.54 36.8321C228.356 36.8321 233.209 33.1994 232.943 32.0407C232.831 31.5587 233.028 30.3814 233.382 29.4231C233.876 28.0796 234.471 28.1108 235.983 29.5596C237.636 31.1435 237.388 31.89 234.394 34.3297C228.065 39.4852 218.177 43.7022 198.561 49.6126C179.188 55.449 172.136 56.6789 173.841 53.9263C174.345 53.113 175.986 52.8358 177.488 53.3121C178.99 53.7869 180.219 53.6533 180.219 53.0135C180.219 52.3751 181.822 51.7182 183.782 51.5562C190.405 51.0045 191.35 50.6718 190.745 49.0965C189.855 46.7832 184.495 43.688 184.495 45.4865C184.495 46.2998 183.372 47.369 182 47.8623C180.629 48.3557 177.83 49.9168 175.782 51.3301C173.734 52.7433 171.616 53.4585 171.074 52.9196C170.534 52.3794 170.514 53.0391 171.032 54.3827C171.815 56.4215 171.103 56.8282 166.747 56.8282C163.874 56.8282 161.89 56.2338 162.34 55.5087C163.393 53.8068 157.958 52.0595 155.781 53.4016C154.793 54.0102 154.506 53.8068 155.07 52.8969C155.59 52.0566 154.287 50.0121 152.172 48.3529C148.81 45.714 148.174 45.6116 147.094 47.5396C146.414 48.751 146.185 50.2694 146.585 50.9149C146.984 51.5604 146.417 52.0893 145.324 52.0893C143.639 52.0893 143.651 51.4794 145.397 48.1097C146.802 45.3984 148.184 44.4074 149.731 44.9989C150.979 45.4766 152.569 44.9747 153.261 43.8842C154.118 42.5335 154.527 42.4539 154.543 43.6325C154.554 44.5851 155.522 44.9974 156.693 44.5496C157.865 44.1003 158.384 43.0012 157.845 42.1055C157.165 40.9738 157.507 40.9937 158.967 42.1709C161.211 43.9809 180.235 45.0685 182.732 43.5287C183.554 43.0226 183.892 41.3278 183.481 39.7653C183.049 38.1131 183.439 36.9231 184.412 36.9231C185.334 36.9231 185.7 37.5501 185.226 38.315C183.886 40.4761 186.919 45.0117 190.291 45.8903C192.757 46.5344 193.193 46.1661 192.609 43.9368C192.213 42.4268 192.471 40.833 193.18 40.3951C194.245 39.7382 194.99 42.1283 194.76 45.4538C194.664 46.8273 202.362 46.7192 207.299 45.2789C217.753 42.2278 220.422 40.8344 218.44 39.461C217.161 38.5724 217.545 38.433 219.65 39.0202C221.398 39.5079 223.194 39.1453 223.79 38.1828C224.414 37.1762 224.238 36.8563 223.359 37.398C222.542 37.9013 221.069 37.3454 220.084 36.161C218.489 34.243 218.014 34.2587 215.745 36.3075C213.369 38.4515 213.251 38.406 213.978 35.6321C214.407 33.9956 215.854 32.6577 217.193 32.6577C220.251 32.6577 226.334 26.3507 225.547 23.9976C224.642 21.2891 220.156 21.2095 219.91 23.8966C219.79 25.1962 219.622 27.0146 219.535 27.936C219.243 31.0468 217.426 31.5885 215.091 29.2596C213.814 27.9857 212.248 27.2663 211.609 27.6601C209.111 29.1999 208.94 23.9123 211.408 21.4498C213.951 18.9133 213.821 18.7896 206.991 17.2171C203.122 16.3256 199.363 15.5962 198.639 15.5962C196.44 15.5962 197.165 18.7213 199.816 20.6749C201.943 22.2431 202.017 22.7891 200.32 24.3872C199.154 25.4834 198.72 25.5644 199.275 24.5805C200.828 21.8194 198.109 21.2919 193.656 23.4914L189.483 25.553L192.719 22.8118L195.954 20.0706L192.931 19.1137C189.332 17.9749 187.22 19.7934 184.974 25.9668C183.419 30.2393 183.349 30.0345 183.859 22.7052C184.16 18.4043 184.057 16.0057 183.632 17.3735C183.208 18.7427 182.223 19.8616 181.443 19.8616C180.658 19.8616 180.428 21.2848 180.929 23.0606C181.667 25.6782 181.533 25.8729 180.189 24.127C178.832 22.3654 178.668 22.5502 179.25 25.1947C179.643 26.989 179.365 28.0341 178.617 27.572C176.932 26.5341 178.667 16.664 180.78 15.2621C181.694 14.6579 181.027 14.2086 179.194 14.1958C176.827 14.1801 176.261 14.7688 176.942 16.5403C177.561 18.1469 177.31 18.572 176.161 17.864C173.235 16.0597 167.391 15.4768 167.391 16.9896C167.391 17.7872 168.113 18.2792 168.995 18.0844C169.877 17.8882 170.888 18.6886 171.241 19.8616C171.813 21.7569 171.716 21.7569 170.372 19.8616C169.028 17.9664 168.855 17.9664 168.817 19.8616C168.778 21.7569 168.62 21.7569 167.391 19.8616C166.28 18.1455 166.006 18.3702 165.988 21.0118C165.976 22.8175 165.397 23.945 164.703 23.5156C164.008 23.0877 163.09 24.0744 162.661 25.708C161.871 28.7222 158.746 28.2175 158.952 25.1094C159.026 23.9862 159.319 24.0488 159.818 25.2943C160.921 28.0483 164.605 20.3578 163.632 17.3294C162.966 15.255 163.079 15.2067 164.384 17.018C165.231 18.191 165.932 18.4299 165.945 17.5469C165.956 16.6654 165.004 15.1484 163.828 14.1744C162.045 12.6986 161.69 12.892 161.69 15.3389C161.69 19.118 159.091 20.746 157.919 17.7005C157.199 15.828 156.776 15.7384 155.812 17.254C154.89 18.7071 154.602 18.5678 154.585 16.6626C154.574 15.2934 155.174 14.1744 155.918 14.1744C156.663 14.1744 157.926 15.2934 158.726 16.6626C159.846 18.582 160.165 18.663 160.121 17.018C160.09 15.8451 159.592 13.6868 159.016 12.2223C157.992 9.62045 157.906 9.62045 155.298 12.2223C153.83 13.6868 152.279 14.6778 151.85 14.4233C151.423 14.1688 150.847 14.8086 150.572 15.8451C150.23 17.1332 150.593 17.0536 151.721 15.5962C153.018 13.9171 153.197 14.6991 152.563 19.2687C151.921 23.881 152.204 25.0753 153.934 25.0753C155.332 25.0753 155.804 24.2692 155.254 22.8232C154.591 21.0872 154.783 20.9564 156.095 22.2545C157.028 23.1786 157.353 25.081 156.814 26.48C156.06 28.4407 155.572 28.5985 154.684 27.1653C154.051 26.1431 153.268 25.5203 152.946 25.7834C152.623 26.045 150.771 24.7256 148.83 22.8516C146.887 20.9777 146.102 19.8957 147.081 20.4474C148.062 20.999 148.863 20.773 148.863 19.9455C148.863 19.118 146.779 18.491 144.231 18.5521C141.682 18.6133 140.401 18.9872 141.38 19.381C142.361 19.7763 143.172 21.4853 143.183 23.1786C143.202 25.6895 143.461 25.8644 144.587 24.127C145.59 22.5772 145.975 22.5033 145.991 23.8554C146.004 24.9402 146.756 25.29 147.794 24.6943C148.792 24.1213 149.071 24.2237 148.427 24.9274C146.759 26.7488 137.662 26.7516 138.196 24.9317C138.44 24.0985 139.014 21.1768 139.473 18.4398C140.065 14.9081 139.901 14.082 138.906 15.5962C137.66 17.4915 137.499 17.4915 137.461 15.5962C137.422 13.701 137.264 13.701 136.035 15.5962C134.898 17.3521 134.65 17.3735 134.631 15.7142C134.62 14.6067 134.274 14.0351 133.863 14.4446C133.454 14.8541 133.543 16.2943 134.063 17.645C134.811 19.5915 135.257 19.7066 136.212 18.2038C137.134 16.7507 137.422 16.8901 137.439 18.7953C137.462 21.3659 136.283 21.7967 130.531 21.3175C128.392 21.1398 127.518 21.609 128.135 22.6057C128.67 23.4673 129.659 23.8327 130.334 23.4161C131.01 22.9995 132.023 23.4019 132.586 24.3104C133.299 25.462 132.468 25.7436 129.834 25.2417C127.036 24.7085 126.033 25.1151 125.959 26.8127C125.873 28.7705 125.718 28.7947 124.89 26.9706C123.586 24.1014 120.357 23.5952 120.357 26.2597C120.357 27.4326 119.736 28.3924 118.976 28.3924C118.218 28.3924 118.006 27.3274 118.506 26.0265C119.167 24.309 118.899 23.9791 117.528 24.8237C116.281 25.5928 115.982 25.4379 116.645 24.3673C117.207 23.4602 115.718 20.864 113.252 18.4611C108.888 14.2057 106.554 12.8707 108.243 15.5962C108.727 16.3782 107.734 17.018 106.036 17.018C103.831 17.018 103.191 17.6493 103.799 19.2246C104.265 20.4389 104.068 21.0744 103.36 20.6379C102.651 20.2014 101.368 21.6076 100.509 23.763C99.1678 27.1255 99.0395 27.1952 99.6025 24.2521C99.9617 22.3668 99.6267 19.6469 98.8542 18.2095C97.9135 16.455 97.9378 15.5962 98.9283 15.5962C99.7393 15.5962 100.449 16.7152 100.503 18.0844C100.589 20.1972 100.777 20.1431 101.75 17.7289C103.146 14.2669 103.325 14.5015 98.5863 13.6441C95.006 12.9958 94.7565 13.2446 95.472 16.7564C96.2303 20.4716 96.1989 20.4616 94.3233 16.3597C93.0348 13.5418 92.0414 12.7171 91.3273 13.8716C90.7387 14.8199 90.9382 15.5962 91.7677 15.5962C92.5973 15.5962 93.2771 16.1479 93.2771 16.8204C93.2771 17.4943 91.6737 17.7403 89.7139 17.3664C87.3252 16.91 86.1436 17.3266 86.1294 18.6289C86.1123 20.1645 85.8272 20.1318 84.7768 18.4739C83.6907 16.7607 83.189 17.0209 82.0388 19.8957C81.1039 22.2317 80.5993 22.6071 80.5394 21.0118C80.491 19.6896 81.091 18.2123 81.8749 17.7289C84.228 16.2787 83.4855 14.338 80.6577 14.5498C78.7892 14.6906 78.192 15.6005 78.6182 17.6607C79.1911 20.4275 79.137 20.4403 77.5307 17.9138C76.1638 15.7626 75.6051 15.6275 74.6032 17.2029C73.5741 18.8251 73.3632 18.8081 73.3447 17.1019C73.329 15.6119 72.7118 15.8052 71.0799 17.8128C69.8456 19.3299 69.2983 19.6128 69.8641 18.4398C70.6794 16.7465 70.5098 16.6597 69.0389 18.0175C67.7448 19.2119 66.385 19.3014 64.5322 18.3119C62.5268 17.2413 61.6731 17.4318 61.0346 19.0896C60.5699 20.2967 59.2971 21.2834 58.2054 21.2834C57.1136 21.2834 56.22 21.9616 56.22 22.7891C56.22 23.6166 55.5686 23.8924 54.7719 23.4019C53.9752 22.9099 53.6716 21.946 54.0963 21.2592C54.5225 20.5725 53.4407 20.2853 51.6919 20.6208C49.9445 20.9564 47.178 20.3592 45.5461 19.2915C42.9207 17.5768 42.5787 17.645 42.5787 19.8886C42.5787 21.5464 43.4481 22.2573 45.0928 21.9417C46.4768 21.6758 47.9804 22.0583 48.4351 22.7919C48.8898 23.527 48.4536 24.127 47.4674 24.127C46.072 24.127 46.0535 24.5066 47.3833 25.8331C48.324 26.7715 49.0936 27.9445 49.0936 28.4393C49.0936 29.8781 44.279 29.5639 42.2893 27.9957C39.5998 25.8786 38.2259 28.1123 40.6987 30.5805C42.1539 32.0321 44.2477 32.416 47.3434 31.799C51.1702 31.0355 51.6505 30.5023 50.4775 28.3156C48.6489 24.9061 48.7131 24.6004 51.2515 24.6004C52.5656 24.6004 53.1371 25.4819 52.7095 26.8526C51.7104 30.0644 54.1049 33.2264 56.7644 32.2084C58.1983 31.6596 58.6829 30.4596 58.0914 28.9241C57.4614 27.2862 57.6994 26.8369 58.8282 27.5322C59.7461 28.098 60.4958 29.5198 60.4958 30.6928C60.4958 31.8658 61.1372 32.4302 61.9211 31.9468C62.705 31.4634 63.3463 31.6639 63.3463 32.3918C63.3463 33.1198 65.842 34.1136 68.8921 34.6013C71.9422 35.0876 74.8084 36.4482 75.2602 37.6255C75.7134 38.8027 77.6704 39.7667 79.6087 39.7667C81.5457 39.7667 83.4926 40.3496 83.9344 41.0619C84.3763 41.7757 86.3203 42.1851 88.2544 41.9733C90.19 41.7614 91.4314 42.1382 91.0152 42.8107C90.599 43.4818 90.9382 44.032 91.7677 44.032C92.5973 44.032 93.2771 42.714 93.2771 41.1046C93.2771 39.4951 93.8586 38.5354 94.5684 38.9733C95.2782 39.4112 95.5918 41.2084 95.2654 42.9671C94.939 44.7259 95.0516 45.3657 95.5177 44.3875C95.9837 43.4093 97.6698 42.6103 99.2633 42.6103C101.376 42.6103 101.976 43.3197 101.475 45.2278C100.865 47.5524 101.403 47.733 106.259 46.8472C109.267 46.2984 111.492 46.2401 111.204 46.7178C110.916 47.1955 111.575 48.4112 112.668 49.4192C114.073 50.7159 114.656 50.7699 114.656 49.6012C114.656 48.4638 115.409 48.5576 117.068 49.9012C118.707 51.2263 119.136 51.2817 118.409 50.0746C117.729 48.9457 118.18 48.2974 119.645 48.2974C121.024 48.2974 121.543 48.9571 120.935 49.9396C120.283 50.9889 120.545 51.1936 121.66 50.5055C122.618 49.9154 123.058 48.5363 122.638 47.4429C122.216 46.3481 122.494 45.4538 123.252 45.4538C124.012 45.4538 124.633 46.7022 124.633 48.2263C124.633 49.7519 125.756 51.6514 127.127 52.449C128.499 53.2467 129.103 53.9177 128.47 53.9419C125.296 54.0599 105.981 50.6818 100 48.9614C92.7255 46.8699 90.5192 47.2197 84.4219 51.4325L80.5537 54.104L77.4665 49.4235C73.0824 42.7794 62.5453 35.3136 56.3867 34.4904C52.6098 33.9842 47.493 35.1572 38.0677 38.689C28.9801 42.0941 24.5361 43.1363 23.5014 42.1041C22.4681 41.0733 22.0134 41.2965 22.0134 42.8392C22.0134 45.2093 8.45758 51.141 3.04154 51.141H0L3.04013 49.0168C4.71197 47.8481 8.41198 43.7235 11.2625 39.8506C14.1117 35.9776 18.6597 31.4421 21.3663 29.7729C24.0743 28.1037 26.2892 25.9284 26.2892 24.9374C26.2892 23.9478 23.7422 21.9915 20.6294 20.591C14.0147 17.6152 -0.999104 1.37834 2.86482 1.37834C5.94626 1.37834 16.5631 4.37831 18.4702 5.78873C21.4547 7.99535 46.4626 15.5962 50.7384 15.5962C53.187 15.5962 62.638 14.3308 71.7398 12.7854C80.8416 11.2385 95.5932 9.3361 104.523 8.55838C113.45 7.77924 121.036 6.8636 121.376 6.52237C121.718 6.18257 120.622 5.46741 118.941 4.93566Z" fill="black"/>
<path d="M107.546 19.1607C108.321 19.6384 108.955 19.2446 108.955 18.2863C108.955 17.3166 109.428 17.1147 110.024 17.8313C110.611 18.5379 111.734 19.6654 112.518 20.3351C113.365 21.0573 112.969 21.2407 111.542 20.7872C110.221 20.3663 108.895 20.7531 108.596 21.6474C108.291 22.5602 107.634 22.182 107.095 20.7829C106.522 19.2929 106.703 18.6417 107.546 19.1607Z" fill="black"/>
<path d="M63.3307 21.9843C62.5553 21.5066 61.9211 20.5142 61.9211 19.7777C61.9211 17.7332 62.943 18.1839 63.8908 20.6464C64.3768 21.9118 64.1374 22.482 63.3307 21.9843Z" fill="black"/>
<path d="M206.586 22.2317C205.479 22.2317 204.905 21.6986 205.308 21.046C205.711 20.3948 206.287 19.8616 206.586 19.8616C206.886 19.8616 207.462 20.3948 207.865 21.046C208.268 21.6986 207.694 22.2317 206.586 22.2317Z" fill="black"/>
<path d="M87.0145 28.0042C87.5746 27.4454 86.966 25.8118 85.6605 24.3729C83.7178 22.2303 83.6622 21.7569 85.3526 21.7569C86.4885 21.7569 87.3508 22.1308 87.271 22.5872C87.1898 23.0436 87.6359 24.5891 88.2601 26.0236C89.1623 28.0895 89.6612 28.2374 90.6689 26.7345C91.4941 25.5019 91.6409 26.1232 91.0879 28.5104C90.4437 31.29 90.7943 32.1843 92.5303 32.1843C93.8116 32.1843 94.5157 31.3781 94.1237 30.3601C93.6933 29.2412 94.1936 28.8331 95.4207 29.3023C97.0227 29.9151 97.0797 30.6075 95.7086 32.7985C94.681 34.4406 93.7788 34.8714 93.4467 33.8776C93.1446 32.9705 91.993 33.7639 90.8884 35.6421C89.3134 38.3221 89.0412 38.4458 89.6213 36.2122C90.4907 32.8724 89.2564 30.6729 85.7944 29.399C84.4219 28.8942 83.3102 27.6616 83.3216 26.6592C83.3372 25.3654 83.7278 25.4436 84.6699 26.9293C85.3996 28.0796 86.4543 28.563 87.0145 28.0042Z" fill="black"/>
<path d="M63.8922 25.4109C65.4116 26.6691 66.0529 26.5511 66.6886 24.8976C67.1618 23.6692 68.4503 23.1118 69.7059 23.5924C72.1218 24.5166 72.7418 28.3924 70.4727 28.3924C69.6888 28.3924 69.0375 27.272 69.0261 25.9042C69.0075 23.7786 68.8037 23.7275 67.6279 25.5488C66.5618 27.1995 67.2117 28.0838 70.4998 29.463C75.1747 31.4236 75.5453 31.998 73.1024 33.5037C72.0177 34.1733 71.8481 33.889 72.6021 32.6719C73.4644 31.2786 72.8173 31.0013 69.9725 31.543C67.3499 32.0435 66.1969 31.6582 66.1969 30.2833C66.1969 29.1942 65.2348 27.9345 64.059 27.4852C62.8831 27.0345 61.9211 26.0165 61.9211 25.2232C61.9211 24.336 62.6822 24.4085 63.8922 25.4109Z" fill="black"/>
<path d="M106.468 27.7781C105.093 27.5777 103.76 26.3535 103.506 25.0597C103.253 23.7644 103.713 22.7052 104.53 22.7052C105.346 22.7052 105.606 23.7701 105.105 25.071C104.52 26.5938 104.755 27.0928 105.764 26.4701C106.626 25.9383 107.701 26.0962 108.151 26.8227C108.6 27.5492 107.843 27.9786 106.468 27.7781Z" fill="black"/>
<path d="M133.686 28.5985C133.953 28.0938 134.57 26.5611 135.058 25.1933C136.303 21.7014 136.725 22.0824 136.893 26.8483C136.996 29.7686 136.474 30.7696 135.12 30.2506C134.064 29.8468 133.42 29.1032 133.686 28.5985Z" fill="black"/>
<path d="M78.6837 28.5871C77.3212 27.5208 76.5572 26.0805 76.9862 25.3881C77.4152 24.6943 78.1564 24.127 78.6338 24.127C79.1099 24.127 79.0771 24.5478 78.5612 25.0625C78.0452 25.5772 78.4201 27.0161 79.3935 28.2615C80.9556 30.2606 80.8729 30.299 78.6837 28.5871Z" fill="black"/>
<path d="M220.52 27.8379C220.147 27.4653 220.263 26.4772 220.781 25.644C222.186 23.3749 223.007 23.8156 222.044 26.3208C221.579 27.5279 220.893 28.2104 220.52 27.8379Z" fill="black"/>
<path d="M167.062 28.6668C166.673 29.8326 166.227 29.699 165.67 28.2488C165.085 26.7317 165.804 26.1175 168.167 26.1175C169.991 26.1175 171.16 26.6393 170.764 27.2777C170.369 27.916 169.502 28.1037 168.839 27.6957C168.177 27.2876 167.377 27.7241 167.062 28.6668Z" fill="black"/>
<path d="M55.4432 30.3032C54.3115 29.871 53.74 28.944 54.1747 28.2431C55.2665 26.48 55.7881 26.6421 56.7074 29.0307C57.2362 30.4056 56.8157 30.8293 55.4432 30.3032Z" fill="black"/>
<path d="M97.6099 37.5984C96.799 38.0989 96.856 36.6842 97.7496 34.1279C99.3288 29.6066 101.354 28.3469 101.354 31.8843C101.354 33.0231 100.82 33.6245 100.165 33.2222C99.5127 32.8198 98.9782 33.4497 98.9782 34.6226C98.9782 35.7956 98.3625 37.1349 97.6099 37.5984Z" fill="black"/>
<path d="M104.679 32.6577C105.859 34.4805 106.065 34.4293 106.083 32.3023C106.095 30.9345 106.609 29.8141 107.225 29.8141C107.841 29.8141 108.344 31.0468 108.344 32.5539C108.344 34.0596 107.772 34.9397 107.072 34.5075C106.37 34.0752 106.214 35.2383 106.725 37.1008C107.647 40.4719 107.645 40.4719 105.502 36.9231C103.17 33.0615 102.419 29.1686 104.679 32.6577Z" fill="black"/>
<path d="M118.131 34.435C119.256 39.5733 118.17 39.4439 116.345 34.2231C115.132 30.7539 115.268 30.1554 117.198 30.4383C118.459 30.6231 119.734 31.6767 120.032 32.7814C120.461 34.3724 120.23 34.3468 118.925 32.6577C117.597 30.9402 117.443 31.2857 118.131 34.435Z" fill="black"/>
<path d="M167.962 33.6999C167.491 33.2307 167.528 32.1644 168.046 31.3312C169.243 29.3976 169.83 29.4217 171.09 31.4563C171.721 32.4729 171.482 32.7117 170.463 32.0819C169.558 31.5246 168.817 31.853 168.817 32.8113C168.817 33.7696 168.432 34.1691 167.962 33.6999Z" fill="black"/>
<path d="M179.95 33.5179C179.439 35.9819 179.32 35.9506 178.553 33.1639C177.936 30.9189 178.305 30.2023 179.958 30.4454C181.192 30.626 182.447 31.6767 182.744 32.7814C183.206 34.4918 183.079 34.4961 181.896 32.807C180.766 31.1933 180.404 31.3255 179.95 33.5179Z" fill="black"/>
<path d="M77.7758 34.4591C76.3676 35.8525 76.2052 35.689 76.9777 33.6629C77.5136 32.261 78.3103 31.4719 78.7493 31.9099C79.1883 32.3464 78.7507 33.4937 77.7758 34.4591Z" fill="black"/>
<path d="M135.901 34.0795C136.109 38.9662 133.749 39.6032 132.1 35.106C130.649 31.1478 130.685 30.8734 132.371 33.0885C133.832 35.0065 134.509 35.1857 135.066 33.7994C135.611 32.4459 135.834 32.5212 135.901 34.0795Z" fill="black"/>
<path d="M203.814 36.2961C202.596 34.7776 201.598 32.9122 201.598 32.1487C201.598 30.343 202.256 31.1492 204.335 35.5013C205.934 38.8525 205.905 38.898 203.814 36.2961Z" fill="black"/>
<path d="M153.237 35.1174C151.723 35.0037 150.734 34.5103 151.036 34.0212C151.827 32.7459 155.989 32.9207 155.989 34.2288C155.989 34.8316 154.751 35.2312 153.237 35.1174Z" fill="black"/>
<path d="M110.557 37.3027C109.149 38.6961 108.986 38.5326 109.759 36.5065C110.295 35.1046 111.092 34.3155 111.531 34.7534C111.97 35.1899 111.532 36.3373 110.557 37.3027Z" fill="black"/>
<path d="M121.767 39.0458C120.992 38.5681 120.357 37.5757 120.357 36.8392C120.357 34.7947 121.379 35.2454 122.327 37.7079C122.813 38.9733 122.574 39.5434 121.767 39.0458Z" fill="black"/>
<path d="M141.285 38.6122C140.83 39.7453 140.492 39.4084 140.424 37.752C140.363 36.2534 140.699 35.4146 141.172 35.8866C141.645 36.3586 141.697 37.5856 141.285 38.6122Z" fill="black"/>
<path d="M111.754 40.4463C112.403 40.8458 113.299 40.216 113.75 39.0472C114.997 35.8041 115.903 36.5179 115.112 40.1221C114.611 42.4055 114.796 42.778 115.759 41.4245C117.721 38.6705 119.384 43.5117 117.552 46.6424C116.418 48.5818 116.157 48.6244 116.103 46.8756C116.044 44.9804 115.872 44.9804 114.541 46.8756C113.373 48.5405 113.245 48.2974 113.958 45.7737C114.46 43.9951 114.341 42.6302 113.694 42.7425C110.792 43.2472 108.862 42.488 109.682 41.1657C110.175 40.3709 111.107 40.0468 111.754 40.4463Z" fill="black"/>
<path d="M127.487 45.0699C126.597 43.6709 126.339 41.1444 126.908 39.3828C127.494 37.5672 128.192 36.9757 128.541 37.998C128.878 38.9804 129.838 39.3615 130.676 38.8454C131.584 38.2852 131.784 38.5781 131.168 39.5705C130.601 40.4861 129.515 40.8515 128.754 40.3823C127.913 39.8634 127.707 41.1103 128.229 43.5572C128.946 46.9197 128.823 47.1699 127.487 45.0699Z" fill="black"/>
<path d="M144.587 42.6103C143.827 41.4373 143.206 39.8378 143.206 39.0558C143.206 38.2738 143.827 38.5937 144.587 39.7667C145.347 40.9396 145.968 42.5392 145.968 43.3211C145.968 44.1031 145.347 43.7832 144.587 42.6103Z" fill="black"/>
<path d="M150.272 41.8894C149.497 41.4117 148.863 40.4193 148.863 39.6828C148.863 37.6383 149.885 38.089 150.833 40.5515C151.319 41.8169 151.079 42.387 150.272 41.8894Z" fill="black"/>
<path d="M205.7 44.032C204.564 44.032 204.595 43.4363 205.804 41.9832C207.31 40.1719 211.575 40.3354 211.575 42.2036C211.575 42.5946 210.613 42.5463 209.437 42.0956C208.261 41.6463 207.299 41.8979 207.299 42.6543C207.299 43.4121 206.579 44.032 205.7 44.032Z" fill="black"/>
<path d="M130.971 46.7548C130.528 46.0396 130.562 44.814 131.047 44.032C132.472 41.7316 133.173 42.4027 132.16 45.0984C131.342 47.2766 131.524 47.3434 133.631 45.6358C134.954 44.5624 136.035 44.2737 136.035 44.996C136.035 47.0889 132.813 49.7292 130.406 49.6069C128.925 49.5315 128.786 49.2571 129.987 48.7751C130.971 48.3784 131.415 47.4699 130.971 46.7548Z" fill="black"/>
<path d="M137.711 48.6173C138.846 48.8533 139.556 47.7628 139.493 45.8804C139.435 44.16 139.916 43.078 140.562 43.4761C142.382 44.5979 141.95 47.7728 139.725 49.614C138.314 50.7813 137.432 50.8239 136.769 49.7533C136.249 48.913 136.672 48.4026 137.711 48.6173Z" fill="black"/>
<path d="M132.908 53.9632C135.005 53.9433 135.042 53.7414 133.185 52.4263C131.564 51.2775 132.079 51.1381 135.308 51.849C137.652 52.3652 139.896 53.2381 140.297 53.7898C140.961 54.7054 145.928 54.8291 148.507 53.9945C149.095 53.804 150.056 53.723 150.644 53.8168C151.233 53.9092 151.713 53.2381 151.713 52.3253C151.713 51.414 152.05 51.0017 152.46 51.4111C152.869 51.8206 152.801 53.2068 152.308 54.4921C151.644 56.2182 149.588 56.8282 144.435 56.8282C140.599 56.8282 137.59 57.3073 137.749 57.8945C138.448 60.4807 135.765 69.5006 133.815 71.1143C131.553 72.9868 130.85 72.428 125.012 64.1077C122.726 60.8504 122.785 60.6002 126.566 57.3542C128.725 55.5016 131.58 53.9746 132.908 53.9632Z" fill="black"/>
</g>
</svg>
