<svg width="721" height="238" viewBox="0 0 721 238" fill="none" xmlns="http://www.w3.org/2000/svg">
<path d="M323.83 17.3697C314.034 14.4343 313.958 13.9905 322.178 7.75014C328.05 3.28938 345.137 1.00497 375.821 0.586551C412.986 0.0771151 422.58 1.45601 430.791 8.49846C437.707 14.4358 455.262 18.6662 488.515 22.4099C583.849 33.1394 699.584 63.2854 698.511 77.1082C696.904 97.7885 693.853 107.729 687.53 112.873C683.625 116.049 682.578 118.625 685.203 118.598C691.283 118.534 707.408 106.408 706.476 102.603C706.087 101.02 706.705 97.1387 707.856 93.9721C709.466 89.5325 711.457 89.6146 716.57 94.3305C722.16 99.4861 721.355 101.952 711.412 110.087C690.401 127.277 657.435 141.503 591.958 161.642C527.293 181.529 503.722 185.824 509.335 176.704C510.997 174.009 516.48 173.04 521.526 174.555C526.573 176.065 530.682 175.583 530.66 173.477C530.638 171.375 535.984 169.157 542.541 168.555C564.698 166.508 567.851 165.38 565.769 160.216C562.711 152.633 544.656 142.632 544.718 148.552C544.746 151.229 541.027 154.788 536.448 156.459C531.87 158.131 522.555 163.367 515.746 168.091C508.937 172.814 501.87 175.242 500.038 173.487C498.211 171.728 498.166 173.9 499.945 178.304C502.64 184.988 500.267 186.351 485.683 186.503C476.062 186.604 469.399 184.717 470.882 182.314C474.35 176.676 456.089 171.114 448.848 175.608C445.562 177.645 444.591 176.986 446.449 173.971C448.162 171.187 443.73 164.503 436.591 159.116C425.243 150.548 423.111 150.233 419.56 156.617C417.325 160.627 416.609 165.634 417.972 167.744C419.33 169.855 417.449 171.616 413.789 171.654C408.148 171.713 408.165 169.705 413.895 158.552C418.508 149.579 423.103 146.269 428.301 148.162C432.498 149.69 437.802 147.983 440.084 144.369C442.905 139.894 444.272 139.617 444.365 143.496C444.436 146.631 447.691 147.955 451.598 146.44C455.506 144.92 457.205 141.284 455.37 138.355C453.055 134.653 454.201 134.707 459.128 138.531C466.707 144.41 530.44 147.325 538.748 142.17C541.484 140.475 542.557 134.885 541.129 129.756C539.626 124.333 540.888 120.403 544.147 120.369C547.235 120.337 548.483 122.388 546.92 124.922C542.508 132.082 552.82 146.905 564.141 149.679C572.419 151.713 573.867 150.485 571.834 143.168C570.455 138.212 571.264 132.957 573.626 131.491C577.168 129.291 579.746 137.132 579.087 148.086C578.815 152.61 604.586 151.986 621.068 147.072C655.967 136.664 664.853 131.985 658.173 127.534C653.857 124.653 655.14 124.181 662.209 126.04C668.077 127.585 674.077 126.329 676.039 123.14C678.095 119.804 677.497 118.758 674.571 120.571C671.854 122.256 666.9 120.478 663.562 116.614C658.156 110.357 656.567 110.425 649.04 117.248C641.158 124.388 640.761 124.242 643.099 115.087C644.479 109.685 649.277 105.231 653.763 105.184C664 105.077 684.151 84.1053 681.436 76.3877C678.313 67.5043 663.292 67.3989 662.558 76.2524C662.202 80.5339 661.701 86.5252 661.442 89.5608C660.57 99.8104 654.504 101.657 646.607 94.0729C642.288 89.9244 637.018 87.6112 634.894 88.9298C626.581 94.0853 625.827 76.6871 634.008 68.4954C642.434 60.0578 641.996 59.6552 619.073 54.7179C606.086 51.9189 593.476 49.6494 591.052 49.6747C583.688 49.7515 586.225 60.0124 595.168 66.3498C602.342 71.4374 602.609 73.2319 596.98 78.5512C593.114 82.2001 591.666 82.482 593.489 79.2242C598.596 70.0817 589.472 68.4405 574.639 75.8357L560.737 82.7672L571.476 73.6316L582.215 64.4959L572.06 61.452C559.971 57.8292 552.961 63.8884 545.651 84.2866C540.592 98.4037 540.351 97.7323 541.808 73.5901C542.667 59.4231 542.241 51.5319 540.866 56.0487C539.49 60.5702 536.231 64.2876 533.621 64.3148C530.991 64.3423 530.272 69.0348 532.008 74.8624C534.57 83.4521 534.128 84.0979 529.568 78.3981C524.964 72.6472 524.422 73.2613 526.459 81.9454C527.838 87.8376 526.943 91.287 524.422 89.7922C518.746 86.4348 524.215 53.887 531.244 49.1988C534.282 47.178 532.033 45.7225 525.896 45.7444C517.968 45.7756 516.094 47.7328 518.436 53.5401C520.562 58.8066 519.737 60.2146 515.866 57.9242C506.007 52.0878 486.42 50.3732 486.472 55.3525C486.5 57.9779 488.931 59.5719 491.879 58.8999C494.826 58.2233 498.237 60.8227 499.461 64.6712C501.44 70.8894 501.115 70.8928 496.55 64.7016C491.985 58.5104 491.407 58.5164 491.343 64.7559C491.28 70.9954 490.75 71.001 486.571 64.8057C482.79 59.196 481.881 59.945 481.91 68.6407C481.934 74.5845 480.035 78.3158 477.696 76.9267C475.352 75.5424 472.313 78.8222 470.933 84.2143C468.392 94.1631 457.909 92.611 458.495 82.3737C458.704 78.674 459.685 78.8697 461.398 82.9518C465.186 91.9781 477.258 66.5363 473.895 56.6023C471.595 49.7977 471.97 49.6347 476.404 55.5512C479.279 59.3824 481.635 60.1441 481.648 57.2375C481.656 54.3357 478.416 49.3756 474.445 46.211C468.424 41.4156 467.243 42.0645 467.327 50.1184C467.456 62.5573 458.808 68.0065 454.78 58.0233C452.306 51.8852 450.885 51.6051 447.711 56.6274C444.674 61.4424 443.705 60.9939 443.582 54.7235C443.497 50.2173 445.468 46.5133 447.959 46.4873C450.455 46.4613 454.721 50.1002 457.446 54.5789C461.263 60.8575 462.334 61.1131 462.13 55.7001C461.985 51.8403 460.245 44.7538 458.267 39.9537C454.746 31.4254 454.46 31.4284 445.816 40.0836C440.951 44.9551 435.793 48.2711 434.347 47.4484C432.907 46.6256 431.001 48.7517 430.115 52.1728C429.014 56.4247 430.229 56.1499 433.953 51.3137C438.238 45.7416 438.867 48.3092 436.9 63.3722C434.911 78.5759 435.897 82.4971 441.69 82.4367C446.372 82.3878 447.924 79.7179 446.032 74.9778C443.753 69.2869 444.393 68.8496 448.828 73.0765C451.986 76.0857 453.139 82.3359 451.383 86.9597C448.926 93.4395 447.295 93.976 444.272 89.2898C442.118 85.9471 439.477 83.9247 438.407 84.8017C437.333 85.6741 431.089 81.3959 424.524 75.2958C417.955 69.1956 415.289 65.6617 418.586 67.4433C421.888 69.2248 424.563 68.4527 424.534 65.7291C424.506 63.0054 417.503 61.0145 408.977 61.3047C400.451 61.5949 396.168 62.8705 399.46 64.1326C402.757 65.3993 405.531 70.9961 405.628 76.5694C405.776 84.8333 406.651 85.3998 410.361 79.6418C413.668 74.5057 414.953 74.2489 415.052 78.6989C415.133 82.2691 417.664 83.3941 421.118 81.397C424.439 79.4762 425.378 79.8034 423.245 82.1424C417.724 88.1954 387.263 88.5226 388.99 82.5138C389.777 79.7629 391.6 70.1258 393.043 61.1012C394.902 49.4559 394.325 46.7426 391.046 51.7614C386.94 58.0431 386.401 58.0487 386.207 51.8119C386.013 45.575 385.483 45.5806 381.434 51.8617C377.687 57.681 376.857 57.7598 376.738 52.2991C376.662 48.654 375.482 46.7848 374.122 48.1469C372.766 49.509 373.112 54.2465 374.9 58.6742C377.472 65.0547 378.97 65.4182 382.116 60.4383C385.154 55.6233 386.122 56.0719 386.245 62.3422C386.41 70.8025 382.478 72.2616 363.2 70.8855C356.031 70.3752 353.122 71.9501 355.222 75.2091C357.042 78.0264 360.366 79.1945 362.614 77.7998C364.862 76.405 368.269 77.694 370.185 80.6647C372.61 84.4304 369.838 85.3861 361.002 83.8261C351.615 82.1689 348.27 83.5424 348.08 89.1327C347.861 95.5797 347.341 95.6647 344.506 89.6895C340.041 80.2912 329.214 78.7379 329.306 87.5079C329.346 91.3687 327.298 94.5493 324.755 94.5758C322.216 94.6023 321.468 91.1046 323.098 86.8051C325.254 81.1288 324.345 80.0524 319.783 82.8801C315.634 85.4555 314.626 84.9558 316.809 81.4088C318.663 78.4034 313.587 69.9101 305.248 62.0874C290.489 48.2332 282.626 43.9204 288.375 52.8326C290.025 55.3895 286.72 57.5301 281.036 57.5894C273.654 57.6665 271.533 59.7667 273.62 64.9307C275.222 68.9109 274.585 71.0097 272.198 69.5977C269.812 68.1858 265.565 72.8589 262.761 79.9835C258.386 91.0981 257.959 91.3319 259.743 81.625C260.881 75.4071 259.666 66.4663 257.03 61.762C253.82 56.02 253.872 53.1925 257.188 53.1579C259.904 53.1296 262.319 56.7878 262.547 61.2926C262.906 68.2438 263.534 68.0594 266.711 60.0791C271.264 48.635 271.873 49.4009 255.976 46.7445C243.966 44.7356 243.139 45.5633 245.655 57.0974C248.322 69.2992 248.216 69.2676 241.795 55.8319C237.384 46.6015 234.03 43.9219 231.679 47.7469C229.74 50.8889 230.435 53.4371 233.212 53.4081C235.99 53.3791 238.285 55.1711 238.308 57.3847C238.331 59.6029 232.971 60.4685 226.396 59.3062C218.382 57.8874 214.44 59.2999 214.437 63.5871C214.433 68.6419 213.477 68.5442 209.903 63.1242C206.208 57.523 204.537 58.3969 200.784 67.8997C197.734 75.6213 196.058 76.8744 195.802 71.6257C195.595 67.2752 197.553 62.3919 200.161 60.7734C207.99 55.9178 205.437 49.5558 195.977 50.3519C189.725 50.8804 187.757 53.8964 189.254 60.6625C191.268 69.7494 191.087 69.7934 185.622 61.5335C180.971 54.5007 179.096 54.0757 175.795 59.2959C172.405 64.6715 171.698 64.6227 171.578 59.0076C171.474 54.1037 169.414 54.7617 164.019 61.4266C159.938 66.4631 158.115 67.4135 159.97 63.5329C162.641 57.9307 162.07 57.6512 157.192 62.1718C152.9 66.148 148.35 66.4904 142.112 63.2979C135.361 59.8441 132.509 60.501 130.428 65.98C128.913 69.9694 124.686 73.2616 121.03 73.2998C117.375 73.3379 114.406 75.6014 114.434 78.325C114.462 81.0487 112.291 81.9793 109.606 80.3926C106.922 78.8012 105.872 75.6389 107.271 73.3637C108.674 71.0885 105.042 70.181 99.1981 71.3465C93.3588 72.512 84.0753 70.6431 78.5744 67.1856C69.725 61.6334 68.582 61.87 68.659 69.2548C68.7159 74.7114 71.6514 77.0209 77.1478 75.9246C81.7726 75.0011 86.8204 76.2074 88.368 78.6063C89.9156 81.0099 88.4759 83 85.1735 83.0345C80.5014 83.0832 80.4524 84.3334 84.9505 88.6532C88.1324 91.709 90.7497 95.5429 90.7667 97.1715C90.8161 101.907 74.6846 101.041 67.9686 95.9491C58.8907 89.0748 54.3669 96.4748 62.7315 104.513C67.6539 109.24 74.6775 110.43 85.0217 108.291C97.8091 105.644 99.399 103.873 95.3964 96.716C89.1564 85.5577 89.3607 84.5493 97.8601 84.4607C102.26 84.4148 104.204 87.2963 102.819 91.8225C99.5844 102.429 107.71 112.753 116.581 109.31C121.363 107.453 122.944 103.487 120.911 98.453C118.745 93.0839 119.527 91.5967 123.33 93.8457C126.423 95.6762 128.982 100.33 129.022 104.191C129.063 108.052 131.23 109.887 133.838 108.268C136.446 106.65 138.6 107.287 138.625 109.683C138.65 112.08 147.041 115.264 157.27 116.762C167.499 118.256 177.143 122.635 178.696 126.494C180.254 130.353 186.84 133.457 193.33 133.39C199.816 133.322 206.355 135.173 207.858 137.502C209.362 139.836 215.886 141.115 222.355 140.351C228.828 139.586 232.998 140.782 231.627 143.011C230.257 145.234 231.411 147.033 234.189 147.004C236.966 146.975 239.197 142.613 239.142 137.316C239.087 132.018 241.001 128.839 243.393 130.256C245.784 131.672 246.896 137.577 245.863 143.377C244.831 149.177 245.23 151.279 246.757 148.043C248.284 144.807 253.902 142.118 259.237 142.063C266.31 141.989 268.343 144.303 266.734 150.601C264.771 158.274 266.577 158.849 282.805 155.764C292.861 153.852 300.308 153.583 299.361 155.165C298.413 156.748 300.66 160.726 304.355 164.006C309.105 168.225 311.058 168.382 311.018 164.535C310.979 160.792 313.502 161.074 319.103 165.439C324.637 169.743 326.075 169.91 323.6 165.963C321.285 162.271 322.77 160.121 327.676 160.07C332.296 160.022 334.056 162.175 332.052 165.43C329.907 168.906 330.792 169.571 334.5 167.267C337.687 165.292 339.114 160.737 337.669 157.153C336.219 153.564 337.118 150.611 339.657 150.584C342.201 150.558 344.324 154.645 344.377 159.662C344.429 164.683 348.25 170.896 352.873 173.473C357.496 176.051 359.538 178.239 357.42 178.34C346.796 178.84 282.006 168.395 261.923 162.941C237.493 156.312 230.118 157.54 209.847 171.619L196.986 180.548L186.489 165.25C171.581 143.534 136.044 119.328 115.394 116.834C102.73 115.3 85.6381 119.34 54.2004 131.293C23.8893 142.819 9.04512 146.405 5.545 143.043C-2.41946 135.394 -1.12409 99.4407 7.23261 96.1943C16.5401 92.5823 16.2744 80.8422 6.81214 77.3932C1.38873 75.4185 -0.357901 69.0341 0.296792 53.5588C0.791232 41.9371 3.4744 32.4128 6.26628 32.393C9.05821 32.3779 26.4265 37.4152 44.8662 43.5928C85.6203 57.246 95.735 57.3511 166.056 44.8558C196.478 39.4462 245.806 32.6693 275.678 29.7975C305.545 26.9211 330.911 23.6423 332.04 22.5072C333.174 21.3768 329.479 19.0612 323.83 17.3697Z" fill="black"/>
<path d="M286.164 64.5892C288.776 66.1345 290.887 64.8161 290.854 61.6619C290.82 58.4702 292.398 57.7892 294.417 60.127C296.408 62.4323 300.207 66.1042 302.855 68.281C305.714 70.6288 304.394 71.2463 299.601 69.8033C295.163 68.4642 290.738 69.7834 289.766 72.7375C288.776 75.7526 286.563 74.5307 284.712 69.9446C282.742 65.0602 283.326 62.9105 286.164 64.5892Z" fill="black"/>
<path d="M138.215 75.4279C135.603 73.8825 133.445 70.6382 133.42 68.214C133.35 61.4845 136.787 62.9323 140.045 71.0046C141.716 75.1526 140.933 77.0376 138.215 75.4279Z" fill="black"/>
<path d="M617.89 71.2377C614.182 71.2764 612.24 69.5416 613.569 67.3794C616.629 62.4145 618.967 62.3901 622.13 67.2901C623.503 69.4241 621.598 71.1991 617.89 71.2377Z" fill="black"/>
<path d="M217.723 94.4148C219.579 92.5561 217.485 87.2002 213.065 82.5099C206.486 75.5253 206.284 73.9688 211.944 73.9098C215.747 73.8701 218.647 75.0708 218.396 76.5758C218.14 78.0808 219.686 83.1522 221.826 87.8523C224.918 94.6205 226.593 95.0898 229.915 90.1081C232.636 86.0218 233.149 88.0618 231.379 95.9385C229.318 105.11 230.523 108.041 236.335 107.981C240.625 107.936 242.955 105.258 241.608 101.921C240.128 98.2529 241.789 96.8923 245.914 98.3938C251.299 100.355 251.514 102.632 246.998 109.891C243.614 115.332 240.608 116.782 239.462 113.522C238.419 110.547 234.59 113.199 230.956 119.419C225.775 128.296 224.868 128.712 226.733 121.34C229.53 110.317 225.321 103.12 213.686 99.0483C209.077 97.4349 205.308 93.4164 205.312 90.1167C205.32 85.8575 206.63 86.1013 209.836 90.9588C212.319 94.7192 215.867 96.2735 217.723 94.4148Z" fill="black"/>
<path d="M140.213 86.6866C145.344 90.7751 147.487 90.3643 149.559 84.8995C151.101 80.8396 155.396 78.9601 159.617 80.498C167.738 83.4555 169.947 96.191 162.349 96.2702C159.724 96.2976 157.505 92.6327 157.42 88.1311C157.285 81.1355 156.601 80.9741 152.726 87.01C149.213 92.4805 151.42 95.3686 162.477 99.7932C178.197 106.083 179.458 107.961 171.33 113.002C167.721 115.244 167.143 114.314 169.626 110.282C172.465 105.666 170.289 104.776 160.782 106.658C152.019 108.397 148.145 107.169 148.097 102.644C148.06 99.059 144.795 94.9463 140.843 93.5086C136.89 92.0662 133.634 88.749 133.607 86.1377C133.576 83.2175 136.127 83.4296 140.213 86.6866Z" fill="black"/>
<path d="M282.852 92.9911C278.24 92.3793 273.736 88.3966 272.842 84.1468C271.948 79.8924 273.453 76.3898 276.187 76.3613C278.922 76.3328 279.827 79.8289 278.197 84.1284C276.288 89.1609 277.092 90.7953 280.45 88.7103C283.318 86.9299 286.922 87.4118 288.455 89.7875C289.983 92.1632 287.464 93.6029 282.852 92.9911Z" fill="black"/>
<path d="M374.016 94.7405C374.891 93.0699 376.905 88.0035 378.49 83.4845C382.541 71.9474 383.967 73.1868 384.694 88.8677C385.138 98.4764 383.425 101.789 378.874 100.128C375.324 98.8362 373.141 96.4112 374.016 94.7405Z" fill="black"/>
<path d="M189.849 96.6245C185.25 93.1623 182.643 88.4483 184.055 86.1543C185.468 83.8555 187.93 81.9624 189.529 81.9457C191.123 81.9291 191.027 83.3155 189.318 85.0276C187.608 86.7397 188.912 91.4626 192.214 95.5281C197.513 102.053 197.238 102.183 189.849 96.6245Z" fill="black"/>
<path d="M664.736 89.2035C663.473 87.9904 663.831 84.7339 665.534 81.9734C670.162 74.4553 672.926 75.8774 669.786 84.1569C668.271 88.1463 665.999 90.4165 664.736 89.2035Z" fill="black"/>
<path d="M485.771 93.7993C484.508 97.6503 483.01 97.226 481.094 92.472C479.085 87.4991 481.469 85.4523 489.382 85.3698C495.49 85.306 499.422 86.9827 498.117 89.0978C496.817 91.2128 493.922 91.8608 491.689 90.5409C489.456 89.2209 486.793 90.6855 485.771 93.7993Z" fill="black"/>
<path d="M112.091 103.085C108.287 101.702 106.342 98.6705 107.773 96.3482C111.368 90.5071 113.12 91.0224 116.281 98.8523C118.098 103.359 116.705 104.769 112.091 103.085Z" fill="black"/>
<path d="M253.529 125.624C250.831 127.3 250.974 122.641 253.878 114.196C259.01 99.2587 265.749 95.0417 265.87 106.685C265.909 110.434 264.14 112.432 261.936 111.13C259.736 109.829 257.968 111.921 258.009 115.781C258.049 119.642 256.033 124.072 253.529 125.624Z" fill="black"/>
<path d="M277.03 109.115C281.044 115.073 281.73 114.897 281.719 107.896C281.71 103.393 283.394 99.6877 285.456 99.6662C287.518 99.6447 289.244 103.684 289.296 108.645C289.348 113.601 287.465 116.518 285.106 115.12C282.739 113.721 282.259 117.555 284.031 123.668C287.235 134.731 287.23 134.731 279.93 123.125C271.99 110.496 269.342 97.7094 277.03 109.115Z" fill="black"/>
<path d="M322.132 114.495C326.074 131.368 322.433 130.98 316.145 113.86C311.965 102.483 312.398 100.508 318.869 101.372C323.099 101.937 327.406 105.36 328.442 108.986C329.933 114.207 329.159 114.131 324.729 108.617C320.222 103.01 319.719 104.153 322.132 114.495Z" fill="black"/>
<path d="M488.955 110.334C487.364 108.806 487.452 105.295 489.155 102.535C493.098 96.1285 495.065 96.1875 499.353 102.84C501.502 106.164 500.709 106.959 497.275 104.921C494.225 103.118 491.755 104.225 491.788 107.38C491.821 110.534 490.546 111.862 488.955 110.334Z" fill="black"/>
<path d="M529.088 109.317C527.465 117.444 527.063 117.346 524.4 108.2C522.256 100.832 523.467 98.4607 529.012 99.2032C533.151 99.7544 537.386 103.169 538.422 106.795C540.027 112.408 539.602 112.427 535.583 106.909C531.743 101.637 530.536 102.084 529.088 109.317Z" fill="black"/>
<path d="M187.011 115.984C182.344 120.619 181.794 120.087 184.311 113.391C186.057 108.758 188.698 106.133 190.183 107.559C191.667 108.98 190.242 112.772 187.011 115.984Z" fill="black"/>
<path d="M381.621 112.704C382.485 128.781 374.604 130.96 368.928 116.215C363.934 103.238 364.044 102.333 369.766 109.565C374.723 115.827 376.996 116.393 378.814 111.811C380.591 107.337 381.343 107.577 381.621 112.704Z" fill="black"/>
<path d="M609.091 117.627C604.958 112.672 601.554 106.567 601.528 104.054C601.466 98.1103 603.698 100.741 610.805 114.993C616.275 125.967 616.181 126.118 609.091 117.627Z" fill="black"/>
<path d="M439.701 115.514C434.629 115.193 431.3 113.604 432.295 111.983C434.9 107.758 448.841 108.188 448.886 112.493C448.907 114.478 444.774 115.836 439.701 115.514Z" fill="black"/>
<path d="M296.871 124.198C292.204 128.834 291.654 128.301 294.171 121.605C295.917 116.972 298.558 114.347 300.043 115.773C301.527 117.195 300.102 120.987 296.871 124.198Z" fill="black"/>
<path d="M334.464 129.544C331.852 127.999 329.694 124.754 329.669 122.33C329.599 115.601 333.036 117.049 336.294 125.121C337.965 129.269 337.183 131.154 334.464 129.544Z" fill="black"/>
<path d="M399.801 127.435C398.318 131.181 397.175 130.083 396.889 124.634C396.632 119.703 397.73 116.931 399.331 118.468C400.931 120.005 401.145 124.042 399.801 127.435Z" fill="black"/>
<path d="M300.987 134.504C303.172 135.796 306.153 133.691 307.62 129.829C311.685 119.111 314.745 121.428 312.22 133.319C310.618 140.852 311.251 142.072 314.431 137.583C320.903 128.45 326.639 144.327 320.614 154.696C316.882 161.118 316.01 161.268 315.768 155.514C315.508 149.278 314.93 149.284 310.538 155.568C306.687 161.089 306.249 160.293 308.548 151.962C310.167 146.09 309.724 141.601 307.561 141.994C297.862 143.756 291.375 141.325 294.073 136.944C295.697 134.311 298.807 133.211 300.987 134.504Z" fill="black"/>
<path d="M353.822 149.173C350.797 144.599 349.846 136.292 351.69 130.474C353.589 124.477 355.907 122.506 357.111 125.858C358.271 129.08 361.501 130.301 364.289 128.573C367.31 126.697 367.988 127.655 365.96 130.943C364.092 133.976 360.469 135.217 357.904 133.699C355.071 132.02 354.426 136.132 356.257 144.167C358.773 155.21 358.371 156.038 353.822 149.173Z" fill="black"/>
<path d="M410.996 140.479C408.412 136.645 406.276 131.402 406.249 128.828C406.223 126.254 408.314 127.285 410.898 131.12C413.482 134.954 415.618 140.197 415.645 142.771C415.671 145.345 413.58 144.314 410.996 140.479Z" fill="black"/>
<path d="M430.008 137.908C427.395 136.363 425.237 133.118 425.212 130.694C425.142 123.965 428.579 125.412 431.837 133.485C433.508 137.633 432.726 139.518 430.008 137.908Z" fill="black"/>
<path d="M615.67 143.024C611.867 143.064 611.951 141.102 615.948 136.277C620.93 130.262 635.215 130.651 635.279 136.801C635.292 138.088 632.069 137.962 628.117 136.52C624.164 135.082 620.951 135.944 620.977 138.434C621.003 140.928 618.615 142.993 615.67 143.024Z" fill="black"/>
<path d="M365.549 154.596C364.04 152.258 364.112 148.223 365.708 145.632C370.401 138.01 372.772 140.195 369.472 149.103C366.807 156.301 367.42 156.515 374.415 150.821C378.807 147.241 382.419 146.253 382.444 148.631C382.516 155.519 371.817 164.322 363.752 164.004C358.791 163.808 358.319 162.909 362.32 161.281C365.604 159.941 367.057 156.935 365.549 154.596Z" fill="black"/>
<path d="M388.181 160.492C391.987 161.229 394.327 157.615 394.052 151.421C393.797 145.76 395.373 142.182 397.549 143.47C403.681 147.099 402.344 157.564 394.958 163.702C390.274 167.593 387.321 167.764 385.065 164.264C383.294 161.516 384.694 159.821 388.181 160.492Z" fill="black"/>
<path d="M372.282 178.255C379.301 178.117 379.418 177.451 373.155 173.187C367.689 169.462 369.407 168.986 380.246 171.213C388.109 172.83 395.655 175.625 397.015 177.426C399.27 180.417 415.906 180.651 424.511 177.813C426.47 177.166 429.693 176.865 431.663 177.154C433.632 177.437 435.222 175.212 435.191 172.207C435.16 169.208 436.272 167.839 437.66 169.172C439.044 170.506 438.862 175.071 437.255 179.319C435.091 185.023 428.23 187.103 410.973 187.283C398.131 187.417 388.073 189.099 388.623 191.026C391.055 199.514 382.379 229.297 375.906 234.676C368.396 240.919 366.025 239.104 346.192 211.922C338.425 201.28 338.612 200.454 351.161 189.638C358.328 183.465 367.834 178.339 372.282 178.255Z" fill="black"/>
</svg>
