<svg width="32" height="32" viewBox="0 0 32 32" fill="none" xmlns="http://www.w3.org/2000/svg">
<path d="M8.03906 4.6045C8.03906 2.14349 10.0382 0.148438 12.5042 0.148438H27.3879C29.8539 0.148438 31.853 2.14349 31.853 4.6045V12.0313C31.853 14.4923 29.8539 16.4873 27.3879 16.4873H26.6437C26.2327 16.4873 25.8995 16.1548 25.8995 15.7447V9.80324C25.8995 7.75239 24.2336 6.08985 22.1786 6.08985H9.52743C8.70543 6.08985 8.03906 5.42484 8.03906 4.6045Z" fill="white"/>
<path d="M1.11719 11.5117C1.11719 9.05071 3.11629 7.05566 5.5823 7.05566H20.466C22.932 7.05566 24.9311 9.05071 24.9311 11.5117V19.4336C24.9311 21.8946 22.932 23.8897 20.466 23.8897H15.0547C14.8448 23.8897 14.6447 23.9781 14.5037 24.1332L8.58883 30.6373C8.10641 31.1678 7.2253 30.7764 7.29732 30.0637L7.8386 24.7069C7.8828 24.2695 7.53869 23.8897 7.09817 23.8897H5.5823C3.11629 23.8897 1.11719 21.8946 1.11719 19.4336V11.5117Z" fill="white"/>
</svg>
