<svg width="52" height="52" viewBox="0 0 52 52" fill="none" xmlns="http://www.w3.org/2000/svg">
<path d="M43.875 24.5H37.25V19.5C37.25 19.4708 37.2507 19.445 37.2518 19.4224C37.3629 19.4017 37.5309 19.3838 37.7823 19.3759C38.0167 19.3685 38.2495 19.3704 38.5226 19.3726C38.6682 19.3737 38.8252 19.375 39 19.375H42.25C43.0784 19.375 43.75 18.7034 43.75 17.875V9.75C43.75 8.92157 43.0784 8.25 42.25 8.25H35.75C29.5352 8.25 24.5 13.2852 24.5 19.5V24.5H19.5C18.6716 24.5 18 25.1716 18 26V34.125C18 34.9534 18.6716 35.625 19.5 35.625H24.5V50.5H6.5C3.74292 50.5 1.5 48.2556 1.5 45.5V6.5C1.5 3.74259 3.74259 1.5 6.5 1.5H45.5C48.2556 1.5 50.5 3.74292 50.5 6.5V45.5C50.5 48.2552 48.2552 50.5 45.5 50.5H37.25V35.625H40.625C41.2384 35.625 41.7899 35.2516 42.0177 34.6821L45.2677 26.5571C45.4526 26.0949 45.3961 25.5712 45.1171 25.1591C44.8381 24.7469 44.3727 24.5 43.875 24.5ZM37.2699 19.2856C37.2699 19.2857 37.2696 19.2867 37.2689 19.2887C37.2695 19.2865 37.2699 19.2855 37.2699 19.2856Z" stroke="#116B6A" stroke-width="3" stroke-linejoin="round"/>
</svg>
