<svg width="52" height="52" viewBox="0 0 52 52" fill="none" xmlns="http://www.w3.org/2000/svg">
<g clip-path="url(#clip0_32_2655)">
<path d="M26.0083 12.6494C18.6352 12.6494 12.666 18.6251 12.666 25.9918C12.666 33.3649 18.6417 39.3341 26.0083 39.3341C33.3815 39.3341 39.3507 33.3584 39.3507 25.9918C39.3507 18.6186 33.375 12.6494 26.0083 12.6494ZM26.0083 34.6519C21.2222 34.6519 17.3482 30.7758 17.3482 25.9918C17.3482 21.2078 21.2243 17.3316 26.0083 17.3316C30.7924 17.3316 34.6685 21.2078 34.6685 25.9918C34.6707 30.7758 30.7945 34.6519 26.0083 34.6519Z" fill="#116B6A"/>
<path d="M36.7212 0.165291C31.9372 -0.0578758 20.0877 -0.0470425 15.2993 0.165291C11.0917 0.362458 7.38016 1.37862 4.38799 4.37079C-0.612674 9.37146 0.0264924 16.1098 0.0264924 25.992C0.0264924 36.106 -0.536841 42.6883 4.38799 47.6131C9.40816 52.6311 16.244 51.9746 26.0092 51.9746C36.0278 51.9746 39.4858 51.9811 43.0283 50.6096C47.8448 48.7398 51.4805 44.4346 51.8358 36.7018C52.0612 31.9156 52.0482 20.0683 51.8358 15.28C51.4068 6.15179 46.508 0.615958 36.7212 0.165291ZM44.2937 44.3046C41.0155 47.5828 36.4677 47.2903 25.9463 47.2903C15.113 47.2903 10.7688 47.4506 7.59899 44.2721C3.94816 40.6386 4.60899 34.8038 4.60899 25.9573C4.60899 13.9865 3.38049 5.36529 15.3947 4.74996C18.155 4.65246 18.9675 4.61996 25.916 4.61996L26.0135 4.68496C37.5597 4.68496 46.6185 3.47596 47.1623 15.488C47.2858 18.2288 47.314 19.0521 47.314 25.9898C47.3118 36.6975 47.5155 41.0676 44.2937 44.3046Z" fill="#116B6A"/>
<path d="M39.8796 15.2405C41.6015 15.2405 42.9974 13.8446 42.9974 12.1227C42.9974 10.4008 41.6015 9.00488 39.8796 9.00488C38.1576 9.00488 36.7617 10.4008 36.7617 12.1227C36.7617 13.8446 38.1576 15.2405 39.8796 15.2405Z" fill="#116B6A"/>
</g>
<defs>
<clipPath id="clip0_32_2655">
<rect width="52" height="52" fill="white"/>
</clipPath>
</defs>
</svg>
