<svg width="52" height="52" viewBox="0 0 52 52" fill="none" xmlns="http://www.w3.org/2000/svg">
<path d="M25.985 13C25.1508 13 25.1508 14.3 25.985 14.3108C32.4568 14.3607 37.7868 18.8717 37.8453 27.1462C37.8453 28.0193 39.1237 28.0085 39.1128 27.1353H39.1107C39.0413 18.2195 33.2217 13.0498 25.985 13Z" fill="#116B6A"/>
<path d="M34.4973 25.7744C34.4778 26.6367 35.754 26.6779 35.7648 25.8047C35.871 20.8885 32.8398 16.839 27.1436 16.4122C26.3094 16.3515 26.2228 17.6624 27.0548 17.723C31.9948 18.0979 34.597 21.4692 34.4973 25.7744Z" fill="#116B6A"/>
<path d="M33.1321 31.366C32.0617 30.7464 30.9719 31.132 30.5212 31.7409L29.5787 32.9607C29.0999 33.5804 28.2051 33.498 28.2051 33.498C21.6747 31.7712 19.9284 24.9375 19.9284 24.9375C19.9284 24.9375 19.8482 24.0124 20.4462 23.5162L21.6249 22.5412C22.2142 22.0732 22.5869 20.9465 21.9867 19.8394C20.3834 16.9425 19.3066 15.9437 18.7584 15.1767C18.1821 14.4552 17.3154 14.2927 16.4141 14.7802H16.3946C14.5204 15.8765 12.4686 17.9284 13.1251 20.0409C14.2452 22.2682 16.3036 29.3684 22.8642 34.733C25.9474 37.2702 30.8267 39.8702 32.8981 40.4704L32.9176 40.5007C34.9586 41.181 36.9432 39.049 38.0027 37.1185V37.1034C38.4729 36.1695 38.3169 35.2855 37.6301 34.707C36.4124 33.5197 34.5751 32.2089 33.1321 31.366Z" fill="#116B6A"/>
<path d="M28.0368 21.2487C30.119 21.3701 31.1287 22.4577 31.237 24.6916C31.276 25.5647 32.5435 25.5041 32.5045 24.6309C32.3658 21.7146 30.8448 20.0896 28.1062 19.9379C27.272 19.8881 27.194 21.1989 28.0368 21.2487Z" fill="#116B6A"/>
<rect x="2.5" y="3.5" width="47" height="47" rx="13.5" stroke="#116B6A" stroke-width="3"/>
</svg>
