<svg width="41" height="41" viewBox="0 0 41 41" fill="none" xmlns="http://www.w3.org/2000/svg">
<path fill-rule="evenodd" clip-rule="evenodd" d="M18.2598 13.3287C19.2744 11.9613 19.6383 10.5203 18.4908 9.24831C15.9156 5.64502 14.1838 3.41675 13.0975 2.34367C11.0323 0.303609 7.63508 0.57956 5.84649 2.34193C4.88581 3.28851 4.56059 3.61357 3.57418 4.61548C-1.92022 10.1128 1.43055 21.734 10.3381 30.6504C19.2437 39.5647 30.8638 42.9172 36.3697 37.4082C37.2799 36.5308 38.0506 35.7597 38.6584 35.1172C40.4112 33.2646 40.6773 30.0172 38.6469 27.9075C37.6059 26.8259 35.481 25.1777 31.7261 22.4918C30.5761 21.4635 29.2126 21.6863 27.9624 22.5065C27.3611 22.901 26.9235 23.3001 26.0971 24.1272L24.5966 25.6286C24.3989 25.8264 21.7152 24.4824 19.1101 21.8747C16.5036 19.2656 15.1605 16.5818 15.3572 16.3851C15.7629 15.9795 16.2634 15.4787 16.8588 14.8827C17.121 14.6202 17.2463 14.4932 17.4071 14.3242C17.742 13.9723 18.0193 13.6529 18.2598 13.3287ZM27.3645 28.3982L28.8654 26.8965C29.3202 26.4413 29.6149 26.1614 29.8547 25.9684C33.144 28.3305 35.049 29.8158 35.8271 30.6243C36.2943 31.1097 36.2217 31.9955 35.8156 32.4247C35.2536 33.0188 34.5234 33.7494 33.6273 34.6136C30.067 38.1755 20.687 35.4692 13.1067 27.8815C5.52406 20.2914 2.81909 10.91 6.35253 7.37458C7.33496 6.3768 7.64622 6.06569 8.59318 5.13262C8.94823 4.78277 9.91538 4.70421 10.3473 5.13088C11.1836 5.95705 12.735 7.94349 15.0172 11.1225C14.8991 11.2692 14.7515 11.435 14.5719 11.6237C14.4401 11.7622 14.3303 11.8735 14.0903 12.1138C13.4953 12.7094 12.9953 13.2097 12.5901 13.6148C10.0381 16.1665 12.2115 20.5096 16.3416 24.6437C20.4688 28.7749 24.8134 30.9507 27.3645 28.3982ZM23.7401 1.05296C32.2066 2.0792 38.9199 8.79246 39.9461 17.259L36.0776 17.9037C35.3306 11.0841 29.915 5.66848 23.0954 4.92152L23.7401 1.05296ZM22.4502 8.79336C27.6232 9.25603 31.7431 13.376 32.2058 18.549L28.3248 19.1958C28.1601 15.6691 25.3301 12.839 21.8034 12.6743L22.4502 8.79336Z" fill="#116B6A"/>
</svg>
