<svg width="50" height="43" viewBox="0 0 50 43" fill="none" xmlns="http://www.w3.org/2000/svg">
<path d="M18.848 26.6795C18.8756 26.2916 19.0528 25.9296 19.3421 25.6698L29.1816 16.835L15.5387 25.3714C15.1681 25.6033 14.7149 25.662 14.2975 25.5321L4.48642 22.4806L18.848 26.6795ZM18.848 26.6795L18.1323 36.7459C18.1028 37.1612 18.2472 37.57 18.5309 37.8747C18.8147 38.1793 19.2123 38.3523 19.6286 38.3523C20.3791 38.3523 21.0085 38.1849 21.5618 37.8659C22.0403 37.5901 22.4061 37.226 22.6486 36.9846C22.6575 36.9758 22.6662 36.9671 22.6748 36.9586M18.848 26.6795L22.6748 36.9586M22.6748 36.9586L26.5564 33.2491L35.4901 39.7913C35.54 39.8279 35.5921 39.8613 35.6462 39.8914C36.7339 40.4976 38.0511 40.8633 39.2958 40.2995C40.5349 39.7382 41.1519 38.5038 41.4408 37.2361L41.4453 37.2159L47.9619 6.68104C47.9672 6.66077 47.972 6.64036 47.9764 6.61983C48.3211 5.01319 48.1224 3.44512 47.057 2.41992C45.9737 1.37746 44.4708 1.34902 43.2337 1.80947L43.2337 1.80941L43.2206 1.81441L4.8395 16.5084L4.83949 16.5084L4.83303 16.5109C4.07883 16.8037 3.4187 17.1639 2.91259 17.6073C2.4149 18.0432 1.94771 18.6696 1.87624 19.4799C1.80042 20.3395 2.19899 21.0422 2.70689 21.517C3.19254 21.971 3.82605 22.2757 4.48502 22.4801L22.6748 36.9586Z" stroke="#116B6A" stroke-width="3" stroke-linejoin="round"/>
</svg>
