<svg width="45" height="45" viewBox="0 0 45 45" fill="none" xmlns="http://www.w3.org/2000/svg">
<path fill-rule="evenodd" clip-rule="evenodd" d="M24.459 12.708V4.98224C33.2714 5.9564 40.1256 13.4276 40.1256 22.4997C40.1256 32.2337 32.2347 40.1247 22.5007 40.1247C12.7666 40.1247 4.87565 32.2337 4.87565 22.4997C4.87565 17.7483 6.76184 13.3007 10.0613 10.0135L7.29697 7.23889C3.26715 11.2537 0.958984 16.6963 0.958984 22.4997C0.958984 34.3968 10.6035 44.0413 22.5007 44.0413C34.3978 44.0413 44.0423 34.3968 44.0423 22.4997C44.0423 10.6025 34.3978 0.958008 22.5007 0.958008H20.5423V12.708H24.459ZM22.5007 18.583C22.1499 18.583 21.8098 18.6291 21.4862 18.7156L14.0938 11.3232L11.3243 14.0927L18.7167 21.4851C18.6302 21.8087 18.5841 22.1488 18.5841 22.4996C18.5841 24.6627 20.3376 26.4163 22.5007 26.4163C24.6638 26.4163 26.4174 24.6627 26.4174 22.4996C26.4174 20.3365 24.6638 18.583 22.5007 18.583Z" fill="#116B6A"/>
</svg>
